<?xml version="1.0" standalone="no"?>
<!DOCTYPE svg PUBLIC "-//W3C//DTD SVG 20010904//EN"
 "http://www.w3.org/TR/2001/REC-SVG-20010904/DTD/svg10.dtd">
<svg version="1.0" xmlns="http://www.w3.org/2000/svg"
 width="407.000000pt" height="407.000000pt" viewBox="0 0 407.000000 407.000000"
 preserveAspectRatio="xMidYMid meet">
<metadata>
Created by potrace 1.11, written by Peter Selinger 2001-2013
</metadata>
<g transform="translate(0.000000,407.000000) scale(0.100000,-0.100000)"
fill="#000000" stroke="none">
<path d="M1795 4060 c-16 -6 -70 -14 -119 -20 -49 -5 -94 -14 -100 -20 -5 -5
-18 -10 -28 -10 -10 0 -21 -7 -25 -16 -3 -8 -12 -13 -20 -10 -8 4 -27 -3 -43
-14 -15 -11 -33 -20 -39 -20 -15 0 -114 -69 -124 -87 -5 -7 -13 -11 -18 -7
-15 9 -81 -57 -74 -74 2 -7 1 -11 -4 -8 -5 3 -21 -13 -37 -37 -16 -23 -43 -59
-61 -80 -22 -24 -33 -47 -33 -67 0 -24 -4 -30 -17 -28 -23 4 -109 -149 -116
-206 -3 -22 -12 -69 -21 -103 -19 -72 -19 -82 -13 -393 3 -129 10 -260 16
-290 14 -71 40 -261 39 -280 -1 -8 0 -33 2 -55 l3 -40 7 50 c4 28 11 113 14
190 7 144 30 290 48 312 6 7 8 13 4 13 -3 0 -1 11 4 25 6 16 6 25 0 25 -18 0
-11 118 9 163 11 23 25 61 31 85 6 23 15 42 20 42 5 0 12 11 16 25 3 13 15 27
26 31 19 6 20 15 3 57 -6 14 -4 16 11 10 11 -3 22 -11 26 -17 5 -7 8 -6 8 3 0
11 3 11 15 1 18 -15 35 -5 35 21 0 10 4 19 9 19 5 0 17 25 26 55 18 56 34 74
30 33 -1 -13 0 -15 2 -5 8 31 70 71 127 82 61 12 86 5 86 -26 0 -12 5 -19 13
-16 6 2 11 14 9 25 -2 12 2 22 8 22 6 0 9 -4 6 -8 -2 -4 0 -14 5 -22 8 -12 12
-12 16 -2 2 6 9 10 14 6 5 -3 9 0 9 5 0 6 7 11 15 11 8 0 24 8 35 18 11 9 30
20 43 23 12 3 21 11 19 17 -1 7 9 12 22 12 13 0 38 3 56 7 26 5 31 3 25 -7 -5
-8 6 -3 24 9 22 16 29 26 21 31 -12 7 10 15 70 27 13 2 29 8 36 14 6 5 15 5
20 1 5 -4 0 3 -10 16 -11 12 -14 22 -8 22 7 0 12 -4 12 -9 0 -5 9 -7 21 -4 12
4 25 0 30 -8 7 -12 9 -12 9 0 0 9 7 11 21 8 15 -4 23 0 26 13 6 21 29 33 45
24 6 -4 5 -10 -3 -16 -9 -6 -1 -7 24 -3 29 5 37 3 37 -10 0 -8 5 -15 10 -15 6
0 10 -7 10 -16 0 -13 3 -14 15 -4 8 7 21 10 30 6 8 -3 19 3 25 14 15 29 84 14
95 -21 4 -13 16 -19 35 -19 16 0 30 -4 32 -10 2 -5 18 -13 37 -16 25 -5 32 -4
27 5 -4 6 0 14 9 17 28 11 28 -4 1 -29 l-26 -25 34 -6 c23 -4 37 -14 41 -27 5
-14 12 -18 26 -14 14 5 19 2 19 -14 0 -11 5 -23 12 -27 7 -5 8 -3 3 6 -5 9 -4
11 3 6 7 -4 12 -14 12 -22 0 -27 18 -5 24 31 4 19 11 35 15 35 9 0 21 -49 21
-87 0 -15 4 -22 11 -17 8 5 10 -8 5 -44 -3 -28 -3 -53 2 -55 4 -3 8 14 10 37
3 37 5 57 10 105 3 20 15 5 18 -22 7 -51 6 -73 -1 -97 -7 -23 -7 -24 10 -10
16 14 17 13 10 -8 -6 -22 -5 -23 14 -13 12 7 21 8 21 4 0 -5 10 -13 23 -18 19
-9 22 -19 25 -73 3 -57 5 -62 19 -50 14 11 15 10 9 -10 -5 -13 -3 -29 4 -36 6
-8 9 -20 8 -27 -2 -8 2 -13 8 -12 6 1 10 -13 10 -33 -1 -18 -4 -34 -8 -34 -11
0 -10 -122 1 -139 6 -9 5 -24 0 -39 -12 -31 -3 -65 11 -42 7 11 10 8 15 -12 4
-15 5 -31 2 -35 -3 -5 -1 -31 4 -58 5 -28 11 -77 13 -110 4 -73 16 -146 26
-160 4 -5 13 -28 20 -50 7 -22 17 -43 23 -46 5 -4 10 -40 9 -80 0 -42 5 -80
11 -88 9 -11 9 -13 0 -8 -9 6 -10 -2 -6 -29 4 -27 3 -35 -5 -30 -7 4 -12 2
-12 -4 0 -6 7 -13 15 -17 14 -5 14 -8 0 -29 -8 -13 -15 -27 -15 -31 0 -4 5 -1
10 7 6 9 10 10 10 3 0 -6 -4 -14 -10 -18 -5 -3 -7 -12 -3 -20 3 -10 -1 -15
-12 -15 -18 0 -18 -39 0 -52 6 -5 3 -8 -7 -8 -12 0 -16 -6 -12 -25 4 -23 -6
-41 -44 -81 -7 -8 -13 -24 -12 -37 3 -28 -10 -67 -21 -67 -5 0 -9 -8 -9 -17 0
-14 2 -15 9 -4 6 9 11 10 15 2 4 -6 -3 -15 -16 -20 -13 -5 -24 -5 -26 0 -7 17
-20 9 -26 -16 -6 -24 -36 -36 -36 -14 0 5 -4 7 -10 4 -12 -8 -12 -16 0 -35 9
-13 11 -13 20 0 8 12 10 9 10 -13 0 -16 -5 -26 -12 -25 -9 2 -13 -12 -14 -43
0 -25 -4 -51 -8 -58 -4 -6 -2 -20 5 -29 7 -9 9 -14 5 -10 -15 13 -36 -12 -36
-42 0 -64 -56 -152 -90 -143 -13 4 -13 3 0 -6 10 -7 18 -6 27 1 9 7 13 7 13 0
0 -14 -41 -43 -51 -37 -4 3 -5 -5 -2 -17 4 -18 3 -20 -6 -8 -9 13 -12 13 -23
1 -11 -12 -10 -13 2 -6 8 4 2 -7 -15 -26 -16 -19 -32 -36 -34 -39 -2 -3 -6 1
-8 8 -4 10 -8 10 -21 0 -13 -11 -15 -10 -10 10 4 12 2 20 -3 16 -15 -9 -10
-33 10 -43 10 -6 20 -8 23 -6 12 13 3 -32 -9 -47 -8 -9 -12 -22 -8 -28 5 -9 1
-10 -13 -6 -14 5 -25 0 -36 -16 l-16 -22 0 24 c0 20 -2 22 -10 10 -5 -8 -7
-23 -4 -33 5 -16 3 -17 -15 -8 -12 7 -21 19 -21 27 0 10 -6 14 -15 10 -8 -3
-15 -1 -15 4 0 6 -4 10 -10 10 -5 0 -10 -9 -10 -19 0 -19 -20 -41 -20 -24 -1
4 -5 27 -9 50 -5 24 -4 40 0 37 10 -6 12 36 3 60 -4 11 -13 14 -30 10 -15 -4
-24 -2 -24 5 0 6 7 11 15 11 17 0 19 9 5 30 -8 13 -10 12 -10 -2 0 -10 -5 -18
-11 -18 -5 0 -8 4 -5 8 2 4 -5 9 -17 10 -19 1 -22 -4 -22 -31 0 -24 -4 -32
-17 -31 -20 2 -24 -21 -6 -32 7 -4 8 -3 4 4 -4 7 -2 12 3 12 14 0 14 -13 -1
-28 -9 -9 -8 -12 7 -13 11 -1 23 -1 28 0 4 0 7 -4 7 -10 0 -6 -7 -9 -15 -5
-11 4 -15 -1 -15 -19 0 -19 4 -23 18 -19 14 5 15 4 2 -5 -11 -8 -18 -6 -27 7
-20 28 -46 52 -57 52 -6 0 -6 -4 2 -8 7 -5 21 -25 31 -45 18 -34 15 -42 -11
-38 -5 0 -8 -3 -8 -9 0 -5 -7 -10 -15 -10 -9 0 -15 6 -14 13 3 23 -1 37 -11
37 -5 0 -7 -8 -3 -17 6 -16 3 -16 -18 2 -13 11 -27 25 -31 30 -4 6 -8 6 -8 2
0 -5 13 -25 29 -45 30 -39 48 -92 31 -92 -5 0 -10 9 -10 21 0 22 -21 22 -28
-1 -3 -7 0 -10 7 -6 6 4 11 1 11 -8 0 -9 -4 -16 -9 -16 -5 0 -9 -14 -9 -30 1
-17 -2 -33 -5 -37 -4 -3 -7 10 -7 30 0 20 -4 38 -9 41 -5 3 -7 16 -4 29 4 17
3 19 -6 11 -7 -6 -13 -25 -13 -42 -1 -21 -5 -29 -14 -25 -16 6 -19 23 -4 23 6
0 10 8 9 18 0 10 -3 12 -6 5 -8 -21 -25 -14 -18 7 3 11 2 20 -3 20 -15 0 -22
-41 -12 -61 13 -22 5 -39 -29 -65 -25 -20 -27 -21 -27 -4 0 10 3 17 6 16 3 -2
13 6 23 17 19 19 18 19 -3 12 -14 -4 -25 -2 -30 5 -5 8 -10 1 -15 -19 -5 -26
-10 -30 -20 -21 -21 17 -38 2 -30 -27 4 -16 2 -22 -5 -18 -5 3 -10 14 -10 23
0 11 -8 18 -20 19 -11 1 -20 -4 -20 -13 0 -8 -4 -14 -9 -14 -5 0 -12 -8 -15
-18 -3 -9 -4 -5 -2 11 2 15 -1 30 -5 33 -5 3 -9 -2 -9 -10 0 -15 -18 -22 -67
-29 -12 -2 -31 -11 -43 -22 -11 -10 -20 -13 -20 -7 0 7 5 12 10 12 6 0 5 8 -2
20 -12 19 -14 19 -25 3 -11 -14 -17 -14 -39 -5 -24 11 -25 11 -19 -9 l7 -21
-21 21 c-22 22 -28 37 -12 26 5 -3 12 -1 16 5 3 5 -2 10 -13 10 -12 0 -22 -11
-29 -33 -5 -17 -8 -24 -7 -14 2 13 -2 17 -12 13 -9 -4 -19 4 -27 21 -9 21 -9
27 1 31 6 2 12 8 12 12 0 5 -16 0 -35 -11 -32 -19 -35 -19 -28 -3 5 14 3 16
-10 11 -15 -5 -16 -3 -7 13 5 10 10 28 10 40 0 11 7 23 15 26 22 9 18 23 -5
17 -11 -3 -20 -13 -20 -22 -1 -12 -7 -9 -25 12 -14 16 -34 29 -45 30 -26 2
-25 3 8 21 21 12 23 15 8 16 -16 0 -17 2 -5 17 13 15 12 15 -10 4 -23 -13 -23
-12 -19 13 6 30 -11 36 -19 6 -3 -11 -9 -17 -14 -14 -5 3 -3 14 4 25 10 17 9
22 -5 30 -15 8 -16 13 -5 31 9 16 9 22 0 25 -7 2 -9 11 -6 19 3 8 0 14 -6 14
-6 0 -11 -4 -11 -10 0 -5 -4 -10 -8 -10 -4 0 -8 9 -8 20 0 11 4 20 9 20 5 0 7
6 4 14 -3 8 1 20 9 27 11 9 12 14 3 19 -13 9 3 47 18 42 4 -2 10 5 12 15 2 10
10 23 19 29 8 6 12 15 9 20 -3 6 -2 16 4 24 6 11 9 8 9 -12 0 -28 9 -35 24
-20 4 4 11 7 14 8 4 0 20 6 36 13 42 17 72 21 256 33 236 14 443 -9 474 -54
12 -17 14 -17 27 -2 11 14 10 17 -4 26 -10 5 -15 13 -12 18 3 4 -2 10 -10 14
-8 3 -15 1 -15 -5 0 -6 -5 -7 -11 -4 -5 4 -25 9 -42 11 -54 7 -111 27 -124 43
-9 10 -13 11 -13 2 0 -7 -4 -9 -10 -6 -5 3 -10 1 -10 -5 0 -7 -6 -8 -19 0 -25
13 -34 13 -26 0 4 -6 -13 -10 -42 -10 -26 -1 -70 -3 -98 -6 -98 -10 -193 -8
-209 5 -13 11 -31 11 -95 -3 -8 -1 -19 -10 -26 -19 -7 -9 -15 -14 -18 -10 -11
10 -8 25 3 18 6 -3 10 -1 10 4 0 6 -5 11 -11 11 -7 0 -8 11 -4 31 5 22 4 29
-4 25 -6 -4 -11 0 -11 8 0 18 -16 21 -25 6 -9 -14 -25 -12 -21 3 1 6 1 9 -1 5
-3 -5 -14 -8 -26 -8 -25 0 -43 -33 -50 -91 -2 -20 -8 -42 -11 -48 -4 -6 -5
-15 -1 -21 9 -14 35 0 35 20 0 10 7 23 15 30 12 10 13 16 3 29 -12 14 -11 14
5 2 15 -12 16 -16 4 -30 -20 -22 -29 -68 -16 -76 6 -5 3 -12 -10 -22 -28 -19
-48 -55 -27 -47 13 5 13 0 -2 -35 -16 -38 -42 -56 -42 -28 0 8 -3 8 -9 -2 -7
-11 -10 -9 -14 10 -4 23 -4 22 -6 -3 -1 -35 -16 -36 -33 -1 -17 35 -43 45 -33
12 6 -20 5 -22 -6 -11 -11 10 -11 16 -1 32 13 22 7 45 -20 72 -10 10 -18 32
-18 48 0 20 -5 30 -15 30 -11 0 -15 11 -15 40 0 22 -4 40 -8 40 -4 0 -8 9 -9
20 -1 13 2 18 10 13 7 -3 4 3 -6 14 -9 11 -14 22 -11 25 3 4 -4 16 -16 28 -11
11 -18 25 -15 30 4 6 3 16 -2 23 -4 6 -8 19 -10 27 -1 8 -10 50 -19 93 -18 79
-34 101 -34 47 0 -16 4 -30 9 -30 5 0 11 -24 15 -52 4 -29 15 -78 25 -108 10
-30 26 -93 36 -140 9 -47 22 -90 28 -95 13 -11 13 -12 27 -87 5 -26 19 -66 31
-89 11 -23 28 -65 36 -93 8 -28 20 -58 26 -66 30 -38 39 -68 44 -138 4 -49 12
-81 22 -92 9 -9 28 -41 43 -71 15 -30 28 -49 28 -44 0 6 6 0 13 -11 6 -12 21
-34 31 -49 11 -15 21 -37 22 -48 1 -12 3 -25 3 -29 1 -4 8 -4 18 -1 10 4 14 2
10 -4 -4 -6 13 -28 36 -49 23 -22 49 -54 56 -71 13 -32 36 -48 25 -18 -4 9 0
15 10 15 10 0 16 -9 16 -24 0 -24 26 -54 37 -42 4 3 -2 12 -12 20 -10 7 -16
20 -12 28 3 9 0 21 -6 28 -9 10 -9 14 0 17 7 2 9 11 6 20 -4 10 -2 14 4 10 6
-4 26 -2 44 5 25 8 34 8 37 0 2 -8 14 -7 39 3 20 9 38 13 40 11 2 -2 29 2 58
9 30 7 56 9 57 4 2 -4 23 -3 48 3 68 15 93 14 98 -1 3 -9 0 -11 -8 -6 -9 6
-11 4 -5 -4 5 -9 10 -10 18 -2 6 6 19 11 29 11 10 0 18 5 18 12 0 6 3 8 6 5 4
-4 1 -13 -6 -22 -7 -9 -10 -18 -7 -21 3 -3 12 7 21 23 13 23 15 25 16 8 1 -20
1 -20 15 -1 8 11 15 16 15 12 0 -4 7 0 16 8 21 21 31 20 39 -4 3 -11 14 -20
23 -20 14 0 14 2 3 9 -11 7 -9 14 13 36 23 23 29 25 43 13 10 -8 14 -8 10 -1
-8 13 24 12 56 -2 15 -6 16 -10 5 -16 -9 -6 -4 -8 15 -7 15 1 27 8 27 16 0 7
-4 10 -10 7 -6 -3 -10 -1 -10 5 0 6 10 14 23 19 12 5 21 12 20 17 -1 5 6 8 15
6 15 -2 15 -1 0 11 -25 20 -22 26 10 24 20 -2 27 2 26 15 -1 14 4 16 27 11 28
-5 40 9 19 22 -16 10 -12 28 5 21 10 -3 17 3 21 20 6 21 11 25 32 19 23 -6 24
-5 11 11 -12 15 -11 16 21 9 l35 -7 -20 22 c-18 21 -18 23 -2 17 14 -5 16 -2
13 18 -3 18 1 28 15 35 10 6 19 17 19 26 0 8 6 17 14 20 8 3 17 15 20 27 5 19
8 20 17 7 8 -12 9 -11 5 5 -4 14 5 32 29 58 19 21 35 45 35 53 0 8 9 23 20 34
46 46 97 162 110 250 21 147 60 323 75 340 8 9 15 23 15 31 0 8 10 41 21 74
28 81 36 142 53 403 11 174 18 225 30 238 9 8 16 20 16 25 0 5 7 9 15 9 8 0
15 -7 15 -15 0 -8 4 -15 8 -15 21 0 40 29 46 70 4 25 11 68 16 95 5 28 9 170
9 317 1 257 0 271 -25 370 -26 101 -75 213 -119 273 -13 17 -22 42 -22 57 0
23 -29 98 -51 134 -101 163 -267 278 -446 310 -43 8 -106 27 -140 43 -124 60
-182 80 -256 85 -157 13 -346 15 -375 6z m-128 -156 c-3 -3 -12 -4 -19 -1 -8
3 -5 6 6 6 11 1 17 -2 13 -5z m-167 -33 c0 -9 -41 -23 -48 -16 -2 2 -2 7 1 12
7 11 47 14 47 4z m395 -11 c3 -5 1 -10 -4 -10 -6 0 -11 5 -11 10 0 6 2 10 4
10 3 0 8 -4 11 -10z m-506 -3 c-2 -1 -15 -11 -28 -22 l-24 -20 14 23 c8 12 20
22 28 22 8 0 12 -1 10 -3z m151 -27 c0 -5 -4 -10 -10 -10 -5 0 -10 5 -10 10 0
6 5 10 10 10 6 0 10 -4 10 -10z m-120 -4 c0 -3 -4 -8 -10 -11 -5 -3 -10 -1
-10 4 0 6 5 11 10 11 6 0 10 -2 10 -4z m590 -11 c11 -13 10 -14 -4 -9 -9 3
-16 10 -16 15 0 13 6 11 20 -6z m-360 1 c0 -3 -4 -8 -10 -11 -5 -3 -10 -1 -10
4 0 6 5 11 10 11 6 0 10 -2 10 -4z m-180 -16 c0 -5 -2 -10 -4 -10 -3 0 -8 5
-11 10 -3 6 -1 10 4 10 6 0 11 -4 11 -10z m325 -30 c-3 -5 -12 -10 -18 -10 -7
0 -6 4 3 10 19 12 23 12 15 0z m290 -10 c3 -5 1 -10 -4 -10 -6 0 -11 5 -11 10
0 6 2 10 4 10 3 0 8 -4 11 -10z m-851 -54 c-6 -15 -52 -31 -62 -22 -4 4 48 33
65 36 1 0 0 -6 -3 -14z m172 -43 c-10 -10 -19 5 -10 18 6 11 8 11 12 0 2 -7 1
-15 -2 -18z m424 17 c0 -5 -2 -10 -4 -10 -3 0 -8 5 -11 10 -3 6 -1 10 4 10 6
0 11 -4 11 -10z m-66 -32 c-3 -5 -12 -4 -20 3 -19 16 -18 18 6 12 11 -3 17 -9
14 -15z m-564 2 c0 -5 -4 -10 -10 -10 -5 0 -10 5 -10 10 0 6 5 10 10 10 6 0
10 -4 10 -10z m260 6 c0 -3 -4 -8 -10 -11 -5 -3 -10 -1 -10 4 0 6 5 11 10 11
6 0 10 -2 10 -4z m-120 -16 c0 -5 -5 -10 -11 -10 -5 0 -7 5 -4 10 3 6 8 10 11
10 2 0 4 -4 4 -10z m450 -40 c0 -5 -2 -10 -4 -10 -3 0 -8 5 -11 10 -3 6 -1 10
4 10 6 0 11 -4 11 -10z m-480 -75 c-13 -14 -26 -23 -28 -20 -6 6 41 53 47 48
3 -2 -6 -14 -19 -28z m256 -4 c-8 -12 -46 -21 -46 -11 0 9 18 18 38 19 7 1 11
-3 8 -8z m144 -11 c0 -5 -7 -10 -16 -10 -8 0 -12 5 -9 10 3 6 10 10 16 10 5 0
9 -4 9 -10z m-575 -102 c-4 -18 -12 -37 -17 -43 -7 -7 -8 -2 -3 15 3 14 9 33
11 43 9 30 16 18 9 -15z m465 18 c0 -3 -4 -8 -10 -11 -5 -3 -10 -1 -10 4 0 6
5 11 10 11 6 0 10 -2 10 -4z m-553 -188 c-2 -13 -4 -5 -4 17 -1 22 1 32 4 23
2 -10 2 -28 0 -40z m1801 8 c-2 -10 -8 -13 -16 -7 -7 4 -10 15 -6 25 8 21 28
6 22 -18z m-1756 -86 c2 -22 0 -40 -4 -40 -5 0 -8 18 -8 40 0 22 2 40 4 40 2
0 6 -18 8 -40z m1847 -303 c-1 -31 -1 -31 -9 -7 -11 36 -11 52 0 45 6 -3 10
-21 9 -38z m38 21 c-3 -8 -6 -5 -6 6 -1 11 2 17 5 13 3 -3 4 -12 1 -19z m-22
-94 c-18 -35 -20 -23 -2 24 6 19 13 28 15 20 1 -8 -4 -27 -13 -44z m45 -15 c0
-11 -29 -19 -34 -10 -3 5 -3 10 -1 13 8 7 35 5 35 -3z m-5 -85 c2 -21 2 -30
-1 -19 -3 11 -10 24 -15 30 -5 5 -9 18 -9 29 0 35 20 3 25 -40z m25 -135 c0
-5 -4 -9 -10 -9 -5 0 -10 7 -10 16 0 8 5 12 10 9 6 -3 10 -10 10 -16z m49 -59
c1 -13 0 -13 -9 0 -5 8 -9 26 -9 40 l1 25 8 -25 c4 -14 8 -32 9 -40z m-39 -59
c16 -31 12 -42 -10 -24 -21 18 -27 43 -10 43 5 0 14 -9 20 -19z m5 -71 c3 -5
1 -10 -4 -10 -6 0 -11 5 -11 10 0 6 2 10 4 10 3 0 8 -4 11 -10z m39 -20 c-6
-6 -10 -3 -10 10 0 13 4 16 10 10 7 -7 7 -13 0 -20z m-162 -782 c-7 -7 -12 -8
-12 -2 0 14 12 26 19 19 2 -3 -1 -11 -7 -17z m-14 -26 c2 -7 -2 -10 -12 -6 -9
3 -16 11 -16 16 0 13 23 5 28 -10z m-37 -139 c-10 -17 -10 -16 -11 3 0 23 13
41 18 25 2 -6 -1 -18 -7 -28z m39 -7 c0 -3 -4 -8 -10 -11 -5 -3 -10 -1 -10 4
0 6 5 11 10 11 6 0 10 -2 10 -4z m-1520 -36 c0 -5 -5 -10 -11 -10 -5 0 -7 5
-4 10 3 6 8 10 11 10 2 0 4 -4 4 -10z m-30 -10 c0 -5 -5 -10 -11 -10 -5 0 -7
5 -4 10 3 6 8 10 11 10 2 0 4 -4 4 -10z m1480 -10 c0 -5 -5 -10 -11 -10 -5 0
-7 5 -4 10 3 6 8 10 11 10 2 0 4 -4 4 -10z m-75 -189 c-7 -32 -25 -43 -25 -16
0 8 5 15 10 15 6 0 10 10 10 22 0 12 3 19 6 15 3 -3 3 -19 -1 -36z m-1507
-126 c-3 -3 -9 2 -12 12 -6 14 -5 15 5 6 7 -7 10 -15 7 -18z m-7 -38 c-10 -9
-11 -8 -5 6 3 10 9 15 12 12 3 -3 0 -11 -7 -18z m1309 -87 c-6 -12 -14 -20
-17 -17 -2 3 1 14 8 26 17 26 24 19 9 -9z m-152 -25 c-3 -3 -9 2 -12 12 -6 14
-5 15 5 6 7 -7 10 -15 7 -18z m-153 -36 c11 -16 1 -19 -13 -3 -7 8 -8 14 -3
14 5 0 13 -5 16 -11z m138 -34 c-3 -9 -8 -14 -10 -11 -3 3 -2 9 2 15 9 16 15
13 8 -4z m-953 -15 c0 -5 -5 -10 -11 -10 -5 0 -7 5 -4 10 3 6 8 10 11 10 2 0
4 -4 4 -10z m40 -15 c-7 -9 -15 -13 -17 -11 -7 7 7 26 19 26 6 0 6 -6 -2 -15z
m727 -37 c-3 -8 -6 -5 -6 6 -1 11 2 17 5 13 3 -3 4 -12 1 -19z m58 2 c3 -5 1
-10 -4 -10 -6 0 -11 5 -11 10 0 6 2 10 4 10 3 0 8 -4 11 -10z m-715 -46 c0 -8
-4 -14 -9 -14 -6 0 -9 9 -8 19 1 22 17 18 17 -5z m575 16 c-3 -5 -12 -7 -20
-3 -21 7 -19 13 6 13 11 0 18 -4 14 -10z m120 -40 c3 -5 1 -10 -4 -10 -6 0
-11 5 -11 10 0 6 2 10 4 10 3 0 8 -4 11 -10z m155 -180 c0 -5 -5 -10 -11 -10
-5 0 -7 5 -4 10 3 6 8 10 11 10 2 0 4 -4 4 -10z m-810 -154 c0 -11 -19 -15
-25 -6 -3 5 1 10 9 10 9 0 16 -2 16 -4z"/>
<path d="M1448 3383 c7 -3 16 -2 19 1 4 3 -2 6 -13 5 -11 0 -14 -3 -6 -6z"/>
<path d="M1397 3353 c-4 -3 -7 -13 -7 -22 1 -13 3 -13 11 2 11 19 8 33 -4 20z"/>
<path d="M2872 2993 c1 -18 6 -33 10 -33 11 0 10 32 -2 50 -8 11 -10 7 -8 -17z"/>
<path d="M2856 2885 c4 -8 8 -15 10 -15 2 0 4 7 4 15 0 8 -4 15 -10 15 -5 0
-7 -7 -4 -15z"/>
<path d="M2874 2825 c3 -21 16 -31 16 -12 0 9 -4 18 -9 21 -5 4 -8 -1 -7 -9z"/>
<path d="M2347 2665 c-15 -8 -25 -10 -22 -5 9 15 -16 12 -49 -5 -35 -19 -37
-19 -29 1 5 15 -1 16 -53 10 -32 -4 -70 -14 -83 -23 -19 -12 -25 -13 -32 -2
-11 19 -16 10 -24 -41 -8 -51 -15 -62 -65 -99 -23 -17 -35 -35 -36 -51 -1 -14
-4 -47 -9 -74 -5 -35 -4 -47 5 -44 6 2 11 7 10 12 -1 5 4 12 12 17 7 5 13 14
13 21 0 7 8 12 17 10 9 -1 19 5 23 15 7 23 186 108 243 117 68 10 159 -11 240
-55 41 -22 76 -39 78 -37 9 10 -28 46 -68 65 -37 19 -180 56 -215 56 -21 0 -2
25 25 32 20 5 23 8 11 16 -11 7 -9 9 8 9 12 0 25 4 28 10 8 13 56 8 62 -7 5
-12 32 -10 59 5 14 8 12 10 -11 10 -16 0 -34 7 -41 16 -7 11 -23 16 -40 14
-19 -2 -28 1 -26 10 3 15 3 15 -31 -3z"/>
<path d="M2488 2663 c-16 -2 -28 -9 -28 -15 0 -5 6 -8 14 -5 7 3 24 -2 37 -11
13 -9 24 -15 24 -14 0 3 17 -2 70 -21 17 -5 41 -20 55 -32 14 -13 35 -28 48
-35 l23 -11 -18 28 c-59 93 -134 132 -225 116z"/>
<path d="M1078 2597 c-41 -38 -58 -86 -58 -169 0 -47 3 -56 15 -52 10 4 15 20
15 49 0 53 8 75 26 75 8 0 17 6 20 14 11 27 234 7 234 -22 0 -5 -32 -17 -72
-27 -77 -18 -99 -28 -135 -60 -30 -26 -17 -43 29 -37 28 3 38 9 42 27 8 30 90
65 153 66 52 1 88 -10 204 -63 44 -21 84 -47 97 -64 l21 -29 1 27 c0 48 -29
103 -80 151 -27 26 -55 47 -62 47 -10 0 -10 2 0 9 15 9 -88 62 -122 63 -12 0
-33 5 -49 10 -18 7 -31 7 -40 0 -8 -7 -18 -6 -31 4 -11 8 -27 14 -35 14 -13 0
-13 -2 -3 -9 15 -9 -94 -6 -118 4 -10 3 -30 -8 -52 -28z"/>
<path d="M2380 2609 c0 -5 10 -9 22 -9 12 0 18 3 14 7 -10 11 -36 12 -36 2z"/>
<path d="M2230 2431 c-61 -20 -124 -55 -160 -88 -56 -50 -53 -63 18 -63 34 0
52 4 44 9 -8 4 -29 7 -48 5 -46 -3 -43 10 10 47 81 58 186 89 161 49 -11 -19
6 -70 29 -85 52 -34 117 -21 143 29 10 17 16 37 15 43 -4 20 25 4 43 -24 12
-17 13 -23 4 -18 -8 5 -6 -1 4 -12 15 -17 16 -26 8 -41 -14 -27 -82 -82 -93
-76 -4 3 -8 0 -8 -6 0 -11 18 -8 65 11 49 19 120 112 98 128 -4 3 -13 14 -18
24 -18 33 -121 68 -210 73 -44 2 -91 0 -105 -5z m110 -27 c0 -8 -5 -12 -10 -9
-6 4 -8 11 -5 16 9 14 15 11 15 -7z"/>
<path d="M1321 2384 c-35 -8 -69 -18 -75 -23 -6 -5 -25 -12 -43 -16 -19 -4
-35 -14 -38 -26 -13 -40 -15 -68 -5 -74 5 -3 10 -19 10 -36 0 -16 4 -29 10
-29 5 0 20 -10 33 -22 13 -13 32 -28 43 -34 26 -15 112 -9 158 10 21 9 42 13
47 10 5 -3 9 2 9 10 0 20 -4 20 -41 0 -28 -14 -94 -17 -127 -6 -21 7 7 22 41
22 37 0 35 14 -3 17 -18 1 -30 -3 -30 -10 0 -7 -4 -6 -10 3 -9 13 -10 13 -10
0 -1 -12 -4 -11 -15 4 -8 11 -18 17 -21 13 -3 -3 -17 4 -30 16 l-24 22 24 49
c21 44 54 75 81 76 6 0 9 -17 7 -39 -3 -32 1 -45 22 -65 25 -26 69 -35 81 -16
3 5 12 7 19 4 8 -3 23 7 35 23 17 21 21 35 16 59 -5 30 -4 32 17 26 27 -6 111
-72 103 -80 -3 -3 -31 -12 -63 -19 l-57 -13 63 3 c85 4 95 17 51 63 -42 44
-88 68 -157 83 -29 6 -54 11 -55 10 -1 -1 -31 -7 -66 -15z m80 -47 c-8 -8 -11
-3 -11 19 1 25 2 27 11 11 8 -14 8 -22 0 -30z"/>
<path d="M3295 2300 c-45 -17 -144 -170 -158 -246 -5 -29 -4 -31 19 -26 23 4
24 6 9 23 -22 23 -14 45 40 115 44 57 92 94 120 94 8 0 15 6 15 14 0 21 -23
34 -45 26z"/>
<path d="M2093 2249 c-28 -10 -20 -43 8 -36 11 3 23 -2 29 -11 8 -13 9 -10 4
13 -9 40 -15 45 -41 34z"/>
<path d="M862 2218 c2 -22 15 -45 40 -72 27 -27 38 -47 38 -69 0 -29 1 -30 14
-11 8 10 10 21 5 22 -5 2 -9 12 -9 22 0 10 -16 41 -35 70 -19 29 -35 56 -35
61 0 5 -5 9 -10 9 -6 0 -9 -15 -8 -32z"/>
<path d="M1627 2225 c-4 -8 -2 -17 3 -20 6 -4 10 3 10 14 0 25 -6 27 -13 6z"/>
<path d="M1530 2211 c-32 -6 -33 -7 -11 -13 13 -4 20 -11 16 -17 -9 -16 2 -14
30 5 22 14 26 36 7 33 -4 -1 -23 -5 -42 -8z"/>
<path d="M950 2165 c0 -8 2 -15 4 -15 2 0 6 7 10 15 3 8 1 15 -4 15 -6 0 -10
-7 -10 -15z"/>
<path d="M3097 2073 c-4 -3 -7 -11 -7 -17 0 -6 5 -5 12 2 6 6 9 14 7 17 -3 3
-9 2 -12 -2z"/>
<path d="M940 1970 c0 -65 15 -65 16 0 1 28 -3 50 -7 50 -5 0 -9 -22 -9 -50z"/>
<path d="M953 1850 c5 -33 12 -59 14 -57 6 7 -9 117 -17 117 -3 0 -2 -27 3
-60z"/>
<path d="M3290 1791 c-14 -15 -32 -30 -40 -33 -8 -3 -12 -8 -8 -12 11 -13 47
13 63 44 19 37 17 37 -15 1z"/>
<path d="M3092 1779 c-17 -27 -11 -33 14 -15 13 10 16 18 9 25 -7 7 -15 4 -23
-10z"/>
<path d="M2062 1759 c-3 -47 -56 -76 -82 -44 -29 35 -156 -1 -209 -59 -23 -25
-59 -37 -46 -16 3 6 -3 10 -14 10 -10 0 -27 3 -37 7 -12 4 -15 3 -10 -5 12
-20 -5 -13 -43 16 -72 55 -131 71 -131 35 0 -9 -6 -13 -15 -9 -11 4 -15 -1
-15 -19 0 -19 7 -26 33 -33 39 -11 49 -5 23 13 -10 8 -15 18 -11 24 9 15 51
-9 102 -58 39 -38 47 -41 96 -41 45 0 61 5 93 30 106 81 141 94 194 72 14 -6
19 -11 12 -11 -7 -1 -11 -5 -8 -10 9 -15 46 0 62 25 9 14 14 37 11 61 -2 23
-4 28 -5 12z m-357 -137 c-3 -3 -11 0 -18 7 -9 10 -8 11 6 5 10 -3 15 -9 12
-12z"/>
<path d="M963 1757 c4 -10 7 -28 7 -38 0 -11 5 -17 10 -14 16 10 12 41 -7 56
-15 12 -16 12 -10 -4z"/>
<path d="M1590 1538 c-9 -20 -9 -21 2 -7 7 9 20 18 28 22 12 4 12 6 -2 6 -10
1 -22 -9 -28 -21z"/>
<path d="M1901 1518 c0 -9 -4 -25 -7 -35 -5 -17 -5 -17 6 0 6 10 9 25 7 35 -4
15 -5 15 -6 0z"/>
<path d="M1517 1497 c-4 -11 -2 -20 7 -23 8 -3 12 -14 9 -25 -3 -10 0 -19 6
-19 6 0 11 14 11 31 0 16 -4 28 -9 24 -5 -3 -11 3 -13 12 -3 17 -4 17 -11 0z"/>
<path d="M1600 1495 c-15 -18 -34 -20 -24 -2 5 9 4 9 -7 -1 -11 -10 -11 -16
-1 -33 8 -12 11 -33 7 -50 -6 -24 -4 -28 10 -23 12 5 16 15 12 38 -2 17 2 43
9 59 16 30 13 35 -6 12z"/>
<path d="M2800 1494 c0 -8 5 -12 10 -9 6 3 10 10 10 16 0 5 -4 9 -10 9 -5 0
-10 -7 -10 -16z"/>
<path d="M1971 1484 c0 -11 3 -14 6 -6 3 7 2 16 -1 19 -3 4 -6 -2 -5 -13z"/>
<path d="M1632 1470 c-12 -13 -22 -33 -21 -44 0 -21 1 -21 9 -1 5 11 9 16 9
10 1 -5 8 1 17 13 23 33 12 50 -14 22z"/>
<path d="M1811 1474 c0 -11 3 -14 6 -6 3 7 2 16 -1 19 -3 4 -6 -2 -5 -13z"/>
<path d="M1940 1456 c0 -14 5 -26 10 -26 6 0 10 9 10 19 0 11 -4 23 -10 26 -6
4 -10 -5 -10 -19z"/>
<path d="M1480 1455 c-7 -9 -8 -15 -2 -15 5 0 12 7 16 15 3 8 4 15 2 15 -2 0
-9 -7 -16 -15z"/>
<path d="M1826 1454 c-8 -21 -8 -24 3 -24 5 0 11 9 14 20 6 24 -8 27 -17 4z"/>
<path d="M1416 1444 c-22 -21 -20 -27 4 -12 11 7 20 16 20 20 0 12 -7 10 -24
-8z"/>
<path d="M1866 1444 c-8 -21 -8 -24 3 -24 5 0 11 9 14 20 6 24 -8 27 -17 4z"/>
<path d="M2741 1444 c0 -11 3 -14 6 -6 3 7 2 16 -1 19 -3 4 -6 -2 -5 -13z"/>
<path d="M2001 1434 c0 -11 3 -14 6 -6 3 7 2 16 -1 19 -3 4 -6 -2 -5 -13z"/>
<path d="M2022 1430 c0 -14 2 -19 5 -12 2 6 2 18 0 25 -3 6 -5 1 -5 -13z"/>
<path d="M1493 1433 c-15 -5 -18 -43 -4 -43 9 0 26 39 19 44 -1 2 -9 1 -15 -1z"/>
<path d="M2791 1414 c0 -11 3 -14 6 -6 3 7 2 16 -1 19 -3 4 -6 -2 -5 -13z"/>
<path d="M2066 1411 c-4 -6 -2 -11 4 -11 7 0 10 -7 7 -15 -4 -8 -2 -17 3 -20
12 -8 13 25 1 44 -6 9 -11 10 -15 2z"/>
<path d="M2790 1364 c0 -8 5 -12 10 -9 6 4 8 11 5 16 -9 14 -15 11 -15 -7z"/>
<path d="M1473 1345 c0 -8 4 -12 9 -9 5 3 6 10 3 15 -9 13 -12 11 -12 -6z"/>
<path d="M2185 1350 c3 -5 8 -10 11 -10 2 0 4 5 4 10 0 6 -5 10 -11 10 -5 0
-7 -4 -4 -10z"/>
<path d="M2725 1350 c-3 -5 -2 -10 4 -10 5 0 13 5 16 10 3 6 2 10 -4 10 -5 0
-13 -4 -16 -10z"/>
<path d="M1111 1284 c0 -11 3 -14 6 -6 3 7 2 16 -1 19 -3 4 -6 -2 -5 -13z"/>
<path d="M2236 1285 c-3 -8 -1 -15 4 -15 6 0 10 7 10 15 0 8 -2 15 -4 15 -2 0
-6 -7 -10 -15z"/>
<path d="M2270 1288 c0 -9 5 -20 10 -23 13 -8 13 5 0 25 -8 13 -10 13 -10 -2z"/>
<path d="M2320 1280 c0 -5 5 -10 11 -10 5 0 7 5 4 10 -3 6 -8 10 -11 10 -2 0
-4 -4 -4 -10z"/>
<path d="M2740 1246 c0 -7 -10 -20 -22 -29 -13 -8 -20 -18 -16 -22 4 -4 19 3
33 16 25 25 33 49 15 49 -5 0 -10 -6 -10 -14z"/>
<path d="M1167 1189 c7 -7 15 -10 18 -7 3 3 -2 9 -12 12 -14 6 -15 5 -6 -5z"/>
<path d="M1730 1122 c0 -6 -16 -13 -35 -16 -19 -4 -35 -11 -35 -16 0 -5 8 -6
17 -3 12 5 15 2 10 -10 -7 -19 1 -47 13 -47 19 0 58 52 53 70 -6 22 -23 38
-23 22z"/>
<path d="M1764 1064 c0 -30 2 -54 4 -54 2 0 10 7 19 15 18 18 10 80 -11 88
-10 4 -13 -7 -12 -49z"/>
<path d="M1834 1099 c-3 -6 0 -18 9 -26 13 -13 14 -12 10 11 -6 29 -9 31 -19
15z"/>
<path d="M1740 1040 c-8 -5 -12 -11 -9 -14 2 -3 11 -1 19 4 8 5 12 11 9 14 -2
3 -11 1 -19 -4z"/>
<path d="M2495 1020 c-3 -5 -1 -10 4 -10 6 0 11 5 11 10 0 6 -2 10 -4 10 -3 0
-8 -4 -11 -10z"/>
<path d="M2570 1001 c0 -7 -4 -9 -10 -6 -6 4 -10 -6 -10 -22 l0 -28 15 29 c9
16 13 31 10 34 -3 3 -5 0 -5 -7z"/>
<path d="M1370 989 c0 -5 5 -7 10 -4 6 3 10 8 10 11 0 2 -4 4 -10 4 -5 0 -10
-5 -10 -11z"/>
<path d="M2453 989 c-24 -9 -30 -24 -13 -34 6 -3 10 1 10 10 0 9 4 14 9 10 5
-3 13 0 16 6 10 15 3 18 -22 8z"/>
<path d="M2200 949 c7 -11 14 -18 17 -15 8 8 -5 36 -17 36 -7 0 -7 -6 0 -21z"/>
<path d="M2482 950 c0 -14 2 -19 5 -12 2 6 2 18 0 25 -3 6 -5 1 -5 -13z"/>
<path d="M2230 911 c0 -5 7 -11 14 -14 10 -4 13 -1 9 9 -6 15 -23 19 -23 5z"/>
<path d="M2096 885 c4 -8 8 -15 10 -15 2 0 4 7 4 15 0 8 -4 15 -10 15 -5 0 -7
-7 -4 -15z"/>
<path d="M2150 882 c6 -13 14 -21 18 -18 3 4 -2 14 -12 24 -18 16 -18 16 -6
-6z"/>
<path d="M1447 867 c-3 -8 -2 -19 3 -26 5 -10 9 -8 14 4 3 9 6 21 6 26 0 14
-17 11 -23 -4z"/>
<path d="M1480 849 c0 -5 5 -7 10 -4 6 3 10 8 10 11 0 2 -4 4 -10 4 -5 0 -10
-5 -10 -11z"/>
<path d="M2100 839 c0 -5 5 -7 10 -4 6 3 10 8 10 11 0 2 -4 4 -10 4 -5 0 -10
-5 -10 -11z"/>
<path d="M2026 823 c-6 -14 -5 -15 5 -6 7 7 10 15 7 18 -3 3 -9 -2 -12 -12z"/>
<path d="M1500 788 c0 -19 2 -20 10 -8 13 19 13 30 0 30 -5 0 -10 -10 -10 -22z"/>
<path d="M1586 723 c-6 -14 -5 -15 5 -6 7 7 10 15 7 18 -3 3 -9 -2 -12 -12z"/>
<path d="M1657 706 c-3 -8 1 -17 9 -20 8 -3 14 1 14 9 0 20 -17 28 -23 11z"/>
<path d="M1805 710 c-3 -5 -1 -10 4 -10 6 0 11 5 11 10 0 6 -2 10 -4 10 -3 0
-8 -4 -11 -10z"/>
<path d="M2851 570 c-1 -57 2 -99 7 -98 5 2 21 -12 36 -29 26 -31 32 -33 93
-33 56 0 73 -5 115 -30 26 -17 55 -30 63 -30 24 0 91 -67 114 -112 17 -36 18
-44 6 -61 -13 -18 -13 -37 1 -105 3 -15 0 -22 -11 -22 -8 0 -15 -5 -15 -11 0
-5 4 -8 9 -5 5 4 7 -3 4 -14 -5 -17 0 -20 26 -20 33 0 34 2 32 80 -1 33 1 31
19 -20 11 -30 20 -56 20 -57 0 -2 141 -3 313 -2 296 0 311 1 287 17 -14 9 -70
58 -125 108 -207 187 -466 377 -599 439 -99 46 -146 60 -276 80 -47 7 -92 16
-101 19 -13 6 -15 -8 -18 -94z"/>
<path d="M1215 614 c-16 -9 -56 -20 -88 -25 -32 -5 -77 -18 -100 -28 -23 -10
-62 -24 -87 -31 -25 -6 -62 -22 -82 -36 -21 -13 -42 -24 -47 -24 -6 0 -33 -13
-61 -30 -28 -16 -57 -30 -64 -30 -7 0 -25 -9 -39 -20 -27 -22 -42 -26 -32 -10
4 6 -12 10 -42 10 -50 0 -113 -25 -191 -74 -23 -14 -49 -26 -57 -26 -9 0 -37
-20 -63 -44 -36 -33 -55 -43 -82 -44 -19 -1 -53 -7 -75 -15 -35 -12 -42 -20
-56 -60 -8 -25 -23 -55 -32 -65 -9 -10 -17 -28 -17 -40 0 -20 5 -22 65 -22 38
0 65 4 65 10 0 7 6 7 19 0 25 -13 91 -13 91 0 0 6 5 10 11 10 5 0 7 -5 4 -10
-4 -7 101 -9 320 -8 l327 3 30 55 c54 97 55 98 53 28 -3 -80 -2 -76 -22 -81
-10 -3 8 -5 39 -6 46 -1 57 2 61 17 4 16 5 16 6 0 0 -10 5 -18 10 -18 11 0 21
60 21 127 0 63 24 139 53 171 12 13 39 33 59 44 43 25 46 35 51 173 4 89 1
115 -12 115 -3 0 -19 -7 -36 -16z m-45 -277 c-9 -7 -26 -25 -39 -42 -22 -29
-23 -29 -16 -5 7 28 54 75 64 65 3 -4 -1 -12 -9 -18z m-640 -5 c-13 -9 -33
-25 -42 -34 -17 -17 -18 -17 -18 0 0 9 15 24 33 33 43 22 58 22 27 1z m560
-51 c-5 -11 -15 -23 -22 -27 -7 -5 -8 -2 -3 7 21 37 44 55 25 20z m-54 -79
c-9 -17 -13 -38 -10 -46 4 -11 1 -16 -10 -16 -23 0 -20 42 5 74 27 34 35 27
15 -12z m64 34 c0 -3 -4 -8 -10 -11 -5 -3 -10 -1 -10 4 0 6 5 11 10 11 6 0 10
-2 10 -4z m-860 -66 c0 -5 -2 -10 -4 -10 -3 0 -8 5 -11 10 -3 6 -1 10 4 10 6
0 11 -4 11 -10z m850 -10 c0 -5 -4 -10 -10 -10 -5 0 -10 5 -10 10 0 6 5 10 10
10 6 0 10 -4 10 -10z m-870 -15 c0 -8 -4 -15 -10 -15 -5 0 -7 7 -4 15 4 8 8
15 10 15 2 0 4 -7 4 -15z m-119 -20 c-1 -15 -24 -12 -29 3 -3 9 2 13 12 10 10
-1 17 -7 17 -13z m976 -7 c-3 -8 -6 -5 -6 6 -1 11 2 17 5 13 3 -3 4 -12 1 -19z
m-762 2 c3 -5 1 -10 -4 -10 -6 0 -11 5 -11 10 0 6 2 10 4 10 3 0 8 -4 11 -10z
m-120 -100 c-3 -5 -12 -10 -18 -10 -7 0 -6 4 3 10 19 12 23 12 15 0z"/>
<path d="M2852 435 c0 -16 2 -22 5 -12 2 9 2 23 0 30 -3 6 -5 -1 -5 -18z"/>
<path d="M2300 422 c0 -6 -5 -12 -11 -12 -13 0 -38 -29 -39 -45 0 -5 7 1 16
13 8 12 24 22 36 22 18 0 19 -2 7 -17 -12 -15 -12 -16 4 -10 10 4 23 7 28 7 5
0 9 5 9 11 0 5 -4 8 -9 4 -5 -3 -17 5 -25 17 -9 12 -16 17 -16 10z"/>
<path d="M2965 390 c-15 -6 -16 -9 -4 -9 9 -1 27 -10 40 -22 13 -11 35 -29 47
-40 13 -11 26 -19 28 -17 8 9 -38 71 -57 75 -10 3 -19 9 -19 14 0 11 -8 10
-35 -1z"/>
<path d="M2847 361 c-4 -17 -3 -21 5 -13 5 5 8 16 6 23 -3 8 -7 3 -11 -10z"/>
<path d="M3102 172 c-12 -26 -15 -38 -6 -27 8 11 20 19 25 18 5 -2 9 11 9 27
0 17 -1 30 -2 30 -2 -1 -13 -22 -26 -48z"/>
<path d="M1241 184 c0 -11 3 -14 6 -6 3 7 2 16 -1 19 -3 4 -6 -2 -5 -13z"/>
<path d="M1233 130 c-1 -17 2 -30 7 -30 6 0 10 14 10 30 0 39 -14 39 -17 0z"/>
<path d="M1230 81 c0 -6 4 -12 8 -15 5 -3 9 1 9 9 0 8 -4 15 -9 15 -4 0 -8 -4
-8 -9z"/>
<path d="M3070 20 c-9 -17 -8 -20 10 -20 11 0 20 7 20 15 0 9 6 12 18 9 14 -5
15 -4 2 5 -22 16 -38 13 -50 -9z"/>
</g>
</svg>
