<?xml version="1.0" standalone="no"?>
<!DOCTYPE svg PUBLIC "-//W3C//DTD SVG 20010904//EN"
 "http://www.w3.org/TR/2001/REC-SVG-20010904/DTD/svg10.dtd">
<svg version="1.0" xmlns="http://www.w3.org/2000/svg"
 width="407.000000pt" height="407.000000pt" viewBox="0 0 407.000000 407.000000"
 preserveAspectRatio="xMidYMid meet">
<metadata>
Created by potrace 1.11, written by Peter Selinger 2001-2013
</metadata>
<g transform="translate(0.000000,407.000000) scale(0.100000,-0.100000)"
fill="#000000" stroke="none">
<path d="M1765 4059 c-22 -4 -58 -8 -81 -8 -36 -1 -100 -17 -159 -41 -11 -4
-32 -12 -47 -19 -16 -6 -28 -15 -28 -21 0 -5 -9 -10 -19 -10 -10 0 -42 -16
-71 -35 -29 -19 -56 -35 -61 -35 -17 0 -112 -102 -151 -162 -21 -31 -42 -58
-47 -60 -17 -6 -171 -275 -171 -298 0 -14 -7 -59 -16 -100 -13 -59 -16 -130
-16 -338 1 -254 6 -318 42 -521 13 -69 13 -121 1 -121 -6 0 -9 -9 -8 -19 0
-11 5 -17 9 -15 4 3 8 -15 8 -40 0 -58 -13 -65 -40 -21 -16 25 -21 45 -16 66
7 34 -7 38 -28 7 -18 -25 -21 -93 -6 -103 6 -4 8 -15 5 -25 -3 -10 -1 -21 5
-25 6 -3 10 3 10 14 0 25 18 28 27 5 3 -9 -1 -52 -10 -97 -9 -45 -13 -102 -10
-126 6 -50 -11 -50 -22 0 -4 17 -9 28 -11 26 -11 -10 51 -427 68 -460 14 -27
29 -21 18 8 -11 28 -3 85 12 85 5 0 7 4 4 9 -4 5 0 12 6 15 10 5 10 7 1 12
-15 6 -18 34 -4 34 20 0 32 -34 56 -159 2 -12 9 -29 15 -36 6 -8 20 -53 30
-102 10 -48 28 -108 39 -133 11 -25 21 -55 21 -67 0 -12 13 -51 29 -85 15 -35
32 -79 36 -98 4 -19 13 -42 20 -50 28 -34 55 -131 55 -200 0 -38 -4 -71 -9
-74 -5 -3 -49 -17 -97 -31 -132 -36 -266 -87 -387 -145 -82 -40 -124 -54 -180
-61 -58 -7 -94 -20 -186 -66 -63 -32 -128 -72 -145 -89 -23 -23 -43 -32 -77
-36 -26 -3 -64 -14 -85 -24 -32 -16 -42 -28 -55 -68 -8 -28 -21 -52 -27 -54
-7 -2 -12 -17 -12 -33 l0 -29 1144 0 c747 0 1145 3 1148 10 2 5 15 11 31 12
15 1 27 6 27 10 0 5 -12 6 -27 3 -24 -6 -26 -4 -13 7 9 7 14 21 12 31 -3 17
-1 17 20 6 21 -11 22 -11 9 4 -12 15 -11 17 3 17 9 0 16 5 16 10 0 6 11 15 25
20 15 6 25 17 25 29 0 11 5 21 12 23 6 2 12 15 13 29 1 14 11 29 25 36 32 16
44 39 24 47 -8 3 -12 2 -9 -4 3 -5 0 -7 -8 -4 -9 3 -12 14 -9 30 3 19 9 23 26
19 11 -2 15 -2 9 1 -18 8 -16 24 2 24 8 0 24 9 34 19 40 40 71 55 84 41 10
-10 8 -12 -6 -6 -13 4 -17 2 -14 -6 2 -7 -3 -18 -11 -24 -13 -9 -12 -12 7 -17
16 -4 21 -1 21 14 0 18 18 28 21 12 6 -34 5 -53 -3 -53 -5 0 -6 -5 -3 -10 4
-6 12 -4 21 5 22 21 29 19 32 -10 1 -14 -4 -25 -11 -25 -8 0 -7 -3 2 -9 10 -7
12 -14 5 -23 -5 -7 -9 -37 -8 -67 1 -33 -2 -48 -7 -40 -12 19 -12 -3 1 -35 9
-25 8 -26 -18 -20 l-27 6 25 -14 c16 -9 24 -21 22 -33 -2 -10 2 -28 8 -41 12
-21 19 -22 131 -23 87 -2 119 1 119 10 0 7 3 9 7 6 3 -4 13 -1 21 5 24 20 45
19 39 -3 -5 -19 6 -19 501 -19 l507 0 -40 27 c-22 14 -85 68 -140 118 -117
108 -402 325 -507 386 -92 54 -206 94 -328 114 -117 20 -127 23 -133 38 -8 22
11 256 33 397 49 311 82 470 99 470 4 0 18 -11 31 -25 13 -14 27 -25 31 -25 4
0 -5 13 -21 29 -27 27 -28 31 -18 67 19 70 40 114 54 114 8 0 17 7 21 15 3 9
20 22 37 30 17 8 39 20 49 27 14 11 19 10 27 -2 14 -22 12 -34 -10 -60 -11
-13 -20 -20 -20 -16 0 4 -9 2 -21 -4 -22 -13 -18 -25 9 -25 9 0 16 -6 14 -12
-1 -7 4 -13 11 -13 18 0 47 33 47 53 0 17 33 41 43 31 10 -11 67 115 71 156 2
22 6 43 10 47 3 3 6 25 5 47 l-1 41 -10 -43 c-5 -24 -11 -42 -14 -40 -2 2 -6
42 -9 89 -8 103 -11 124 -24 169 -6 19 -11 36 -11 37 0 2 9 3 19 3 24 0 31
-11 37 -56 4 -35 22 -79 29 -72 2 2 -1 25 -7 51 -10 50 -5 83 12 72 11 -7 -8
54 -23 73 -13 17 -52 38 -43 23 4 -5 -4 -15 -16 -22 -13 -6 -53 -44 -90 -83
-57 -61 -69 -69 -85 -60 -12 8 -17 20 -14 40 3 31 19 47 35 37 5 -3 6 -1 2 5
-4 6 -14 8 -23 5 -11 -4 -14 -3 -9 6 4 6 16 9 27 6 13 -4 19 -2 19 8 0 8 17
29 38 47 20 17 32 29 25 26 -21 -11 -23 10 -7 85 19 88 23 614 6 671 -6 18
-13 51 -17 73 -7 44 -98 237 -121 256 -8 6 -14 25 -14 41 0 36 -41 124 -93
201 -83 123 -239 221 -409 258 -52 11 -131 40 -192 69 -92 43 -116 50 -206 60
-118 12 -346 12 -405 -1z m247 -526 c-10 -4 -9 -8 4 -17 19 -14 11 -36 -12
-36 -8 0 -13 4 -10 8 2 4 -4 8 -15 8 -19 0 -19 -1 -3 -13 9 -6 14 -18 11 -26
-4 -11 2 -11 30 2 24 11 33 21 29 34 -3 12 4 22 22 31 69 35 103 26 37 -10
-19 -10 -35 -22 -35 -27 0 -13 73 4 94 22 18 15 18 15 5 -6 -8 -13 -19 -23
-26 -23 -7 0 -13 -8 -13 -17 0 -15 -2 -16 -10 -3 -8 12 -11 12 -28 -3 -10 -9
-24 -17 -30 -17 -7 0 -12 -4 -12 -10 0 -12 3 -12 32 -1 13 5 43 15 68 22 25 7
57 23 72 37 14 13 28 23 30 22 1 -1 12 2 22 6 21 8 50 -21 42 -43 -3 -7 -1
-15 4 -18 5 -3 11 3 15 14 6 21 55 36 55 16 0 -20 31 -40 55 -37 13 2 26 -2
31 -9 4 -7 3 -10 -3 -6 -6 4 -14 0 -17 -9 -4 -10 -2 -13 7 -8 6 4 3 -3 -8 -16
-11 -13 -15 -20 -8 -17 6 4 14 3 18 -3 3 -5 19 -10 34 -10 25 0 30 -5 37 -37
4 -21 8 -41 9 -45 2 -5 3 -19 4 -33 2 -36 18 -31 19 6 0 17 4 34 7 37 6 7 31
-29 26 -37 -1 -2 3 -7 10 -12 10 -6 10 -11 -1 -23 -7 -9 -10 -19 -6 -23 3 -3
6 -1 6 5 0 7 4 12 10 12 15 0 0 -29 -18 -32 -14 -3 -14 -5 1 -20 21 -21 22
-35 2 -18 -9 7 -19 10 -22 6 -4 -4 -2 -11 5 -15 18 -11 22 -88 6 -102 -7 -6
-13 -23 -12 -37 1 -34 -9 -129 -15 -139 -8 -13 12 -55 23 -48 5 3 10 -1 10 -9
0 -9 -6 -16 -12 -16 -9 0 -8 -4 2 -10 13 -8 12 -10 -2 -10 -24 0 -23 -7 8 -47
36 -47 19 -66 -28 -31 -58 43 -91 52 -127 34 -17 -9 -31 -14 -31 -11 0 4 -5 3
-12 -1 -7 -4 -30 -7 -53 -5 -50 3 -197 -27 -207 -42 -6 -9 -11 -8 -17 2 -8 12
-12 12 -24 2 -12 -9 -16 -9 -20 1 -3 10 -8 8 -19 -5 -7 -10 -26 -19 -41 -21
-15 -1 -30 -6 -35 -11 -4 -4 -1 -5 7 0 10 5 12 4 7 -4 -4 -6 -11 -9 -16 -6
-20 12 -50 -16 -51 -48 l-2 -32 -5 30 -5 30 -7 -25 c-8 -24 -8 -24 -9 5 -1 22
-4 26 -10 15 -6 -8 -7 -18 -5 -22 3 -4 1 -8 -4 -8 -5 0 -12 -29 -14 -64 -2
-40 -10 -72 -20 -83 -20 -23 -35 -68 -19 -59 15 9 14 -7 -1 -22 -9 -9 -9 -17
2 -36 10 -19 10 -29 2 -39 -7 -8 -9 -16 -7 -19 12 -12 10 -125 -2 -157 -11
-30 -11 -32 2 -21 9 8 15 9 15 2 0 -6 -4 -14 -10 -17 -18 -11 -11 -35 10 -35
24 0 26 -25 3 -38 -18 -11 -27 -42 -12 -42 6 0 5 -8 -1 -20 -6 -11 -16 -17
-22 -14 -6 4 -8 3 -4 -4 3 -6 2 -21 -2 -34 -10 -28 -5 -58 10 -58 28 0 77 81
70 116 -4 19 27 39 40 26 9 -9 9 -12 0 -12 -7 0 -12 -5 -12 -11 0 -5 4 -8 9
-5 4 3 6 -5 4 -17 -3 -17 3 -25 29 -36 41 -18 81 -59 72 -73 -4 -7 -2 -8 4 -4
16 10 15 -9 0 -22 -7 -5 -30 -13 -52 -16 -21 -4 -43 -9 -48 -12 -5 -3 -17 -2
-26 2 -9 4 -40 8 -69 10 -43 2 -54 -2 -72 -22 -14 -17 -31 -24 -55 -24 -19 0
-38 -5 -41 -10 -4 -6 -18 -2 -36 10 -31 23 -38 55 -18 92 6 11 12 53 14 92 3
79 8 114 30 201 22 89 48 165 57 165 4 0 3 12 -2 26 -6 16 -6 23 0 19 10 -6 6
42 -11 107 -5 24 -14 59 -18 78 -10 48 -29 80 -46 80 -8 0 -15 4 -15 9 0 5 -7
11 -15 15 -16 6 -16 -14 0 -26 6 -5 5 -8 -3 -8 -8 0 -16 8 -19 18 -2 11 -20
25 -39 32 -19 8 -34 17 -34 22 0 4 -5 8 -11 8 -5 0 -7 -4 -4 -10 3 -5 1 -10
-5 -10 -6 0 -8 -4 -5 -10 6 -10 -28 0 -66 21 -18 9 -55 14 -186 23 -34 2 -51
12 -40 22 4 4 13 1 21 -5 11 -9 16 -9 22 0 4 7 3 9 -3 6 -6 -4 -16 -1 -22 7
-9 10 -8 15 4 20 9 3 14 10 11 15 -3 5 2 12 11 15 15 6 15 8 3 16 -16 10 -13
11 34 14 22 1 35 26 13 26 -9 0 -17 14 -21 35 -4 19 -10 35 -14 35 -4 0 -6 25
-4 56 2 36 -1 53 -8 49 -5 -3 -8 0 -5 7 11 31 13 68 4 73 -10 7 7 45 24 57 6
3 11 18 13 32 2 23 -5 30 -28 28 -3 -1 -3 11 1 26 6 21 14 27 35 27 21 -1 26
3 23 16 -3 10 1 20 9 23 16 6 19 46 3 46 -5 0 -7 5 -4 10 4 6 10 8 15 5 5 -3
11 3 15 14 3 11 12 21 19 24 11 4 12 -3 6 -31 -10 -44 -8 -71 7 -96 10 -17 11
-16 19 15 11 48 11 48 14 57 1 4 2 14 1 23 -1 9 7 19 18 22 14 3 20 -1 24 -19
2 -13 1 -22 -2 -20 -3 2 -12 -2 -18 -10 -8 -8 -9 -15 -3 -19 6 -3 10 -1 10 4
0 6 7 11 15 11 8 0 15 -5 15 -11 0 -5 -4 -7 -10 -4 -5 3 -10 0 -10 -8 0 -8 12
-17 26 -20 20 -4 27 1 35 20 5 15 15 23 23 20 12 -5 56 42 56 59 0 11 42 54
53 54 13 0 -1 -71 -18 -90 -7 -8 -16 -30 -20 -49 -7 -32 -6 -34 9 -19 9 9 16
21 16 27 0 6 5 11 11 11 9 0 29 43 29 63 0 4 10 17 21 28 17 17 23 19 30 8 5
-8 2 -20 -8 -31 -9 -10 -14 -21 -11 -24 3 -3 18 11 33 30 29 38 45 46 45 22 0
-8 5 -18 12 -22 7 -5 9 -2 5 9 -7 19 10 87 23 87 4 0 11 -6 13 -12 3 -8 6 -6
6 4 1 17 39 50 50 44 6 -4 24 12 32 29 2 5 9 11 14 12 6 1 26 6 45 11 34 8 59
4 32 -5z m-332 -138 c0 -8 -4 -15 -10 -15 -5 0 -7 7 -4 15 4 8 8 15 10 15 2 0
4 -7 4 -15z m879 -6 c-8 -5 -27 -9 -44 -9 -25 1 -27 2 -12 11 9 5 21 8 26 4 5
-3 12 -1 16 5 4 6 11 7 17 4 6 -4 5 -10 -3 -15z m11 -69 c0 -5 -2 -10 -4 -10
-3 0 -8 5 -11 10 -3 6 -1 10 4 10 6 0 11 -4 11 -10z m83 -134 c4 -10 1 -13 -8
-9 -8 3 -12 9 -9 14 7 12 11 11 17 -5z m-1393 -46 c0 -5 -8 -10 -17 -10 -15 0
-16 2 -3 10 19 12 20 12 20 0z m1408 -484 c14 5 15 4 2 -5 -10 -7 -11 -11 -2
-11 6 0 12 -5 12 -10 0 -6 -11 -3 -25 6 -14 9 -25 24 -25 33 1 14 2 14 11 -1
5 -10 17 -15 27 -12z m-141 -92 c-3 -3 -12 -4 -19 -1 -8 3 -5 6 6 6 11 1 17
-2 13 -5z m-857 -49 c0 -12 -19 -12 -23 0 -4 9 -1 12 9 8 7 -3 14 -7 14 -8z
m725 -6 c14 -6 3 -8 -40 -6 -32 2 -74 1 -92 -3 -18 -5 -33 -4 -33 0 0 18 131
25 165 9z m464 -40 c-9 -5 -15 -4 -18 2 -2 6 3 15 10 20 9 5 15 4 18 -2 2 -6
-3 -15 -10 -20z m-508 -9 c5 0 9 -4 9 -8 0 -4 -16 -6 -36 -4 -25 3 -32 7 -23
13 8 5 20 7 27 4 8 -3 18 -5 23 -5z m518 -22 c-10 -6 -7 -8 10 -6 19 2 26 -3
31 -22 4 -14 3 -33 -2 -42 -6 -12 -5 -18 2 -18 7 0 8 -6 2 -17 -12 -23 -5 -43
15 -43 8 0 13 -6 10 -12 -2 -7 0 -25 4 -40 4 -16 4 -28 -1 -28 -4 0 -7 -11 -6
-25 2 -13 -1 -23 -6 -22 -6 1 -18 -9 -29 -23 -15 -20 -17 -32 -10 -62 5 -22 5
-38 0 -38 -5 0 -9 -6 -9 -14 0 -9 -7 -12 -22 -9 -19 4 -20 3 -8 -6 13 -10 13
-11 0 -11 -12 0 -12 -2 -2 -9 16 -9 24 -61 10 -61 -5 0 -6 -4 -3 -10 3 -5 -1
-20 -9 -32 -9 -12 -16 -30 -16 -40 0 -10 -5 -18 -11 -18 -5 0 -9 -8 -7 -17 1
-10 -1 -24 -6 -32 -5 -7 -9 -38 -9 -67 0 -46 -2 -51 -13 -36 -13 16 -13 16
-14 0 0 -10 -6 -18 -12 -19 -10 0 -10 -2 0 -6 6 -2 12 -9 12 -14 0 -4 -7 -5
-17 -2 -10 4 -14 2 -10 -4 4 -6 0 -13 -8 -17 -12 -4 -13 -11 -5 -31 8 -20 7
-24 -3 -18 -26 16 -37 11 -37 -17 0 -16 -4 -32 -10 -35 -5 -3 -10 -13 -10 -21
0 -8 -9 -23 -20 -34 -11 -11 -17 -26 -14 -34 3 -8 1 -17 -5 -20 -6 -4 -8 -13
-4 -21 3 -9 -1 -15 -11 -15 -9 0 -13 6 -10 14 3 8 1 23 -5 33 -8 13 -11 14
-10 3 4 -42 -2 -71 -12 -64 -8 5 -10 -1 -7 -20 4 -17 1 -25 -6 -23 -6 3 -10 9
-9 14 1 5 -5 10 -13 10 -8 0 -14 -9 -14 -19 0 -10 -4 -18 -9 -18 -6 0 -18 -13
-27 -29 -18 -30 -64 -48 -75 -29 -4 7 -9 6 -13 -1 -4 -6 -5 -15 -2 -19 9 -14
-11 -35 -28 -29 -18 7 -12 31 16 59 20 20 16 38 -7 38 -8 0 -12 6 -9 14 3 9
-3 17 -17 21 -14 5 -18 10 -10 14 18 12 -24 58 -59 66 -17 4 -30 11 -30 16 0
6 -4 8 -9 4 -5 -3 -15 11 -21 30 -6 19 -18 35 -26 35 -24 0 -29 1 -41 12 -7 5
-17 7 -23 3 -5 -3 -10 -2 -10 2 0 5 -9 14 -20 20 -16 10 -22 10 -36 -5 -16
-16 -17 -15 -11 10 5 18 3 28 -8 32 -16 6 -39 -27 -27 -38 3 -4 -1 -4 -11 0
-9 3 -17 12 -17 19 0 34 -20 22 -26 -14 -4 -23 -10 -38 -15 -35 -12 7 -11 44
1 44 6 0 10 8 10 18 0 10 6 24 13 31 6 8 7 11 2 8 -6 -3 -12 3 -12 14 -2 17 2
19 27 14 24 -5 34 -1 60 26 29 31 31 37 29 101 -1 38 -6 71 -11 74 -5 3 -6 24
-3 46 5 29 2 43 -7 49 -10 7 -10 9 0 9 6 0 12 6 12 14 0 8 10 18 21 21 17 6
19 9 8 16 -10 6 -11 9 -1 9 6 0 12 10 12 23 0 32 9 39 27 21 14 -13 17 -13 28
3 11 14 16 15 28 5 12 -10 17 -10 23 -1 4 8 3 9 -4 5 -17 -10 -15 3 3 20 17
18 21 49 4 38 -7 -4 -10 1 -7 12 3 17 14 19 93 20 71 1 99 6 132 22 23 12 48
22 56 22 7 0 32 16 54 35 39 33 72 47 58 25 -8 -12 17 -9 26 3 3 5 13 2 21 -6
13 -14 17 -13 31 3 8 10 13 21 10 24 -4 3 1 6 10 6 10 0 16 3 15 8 -4 13 13
52 21 48 4 -3 8 0 8 7 0 23 36 68 49 63 23 -9 44 5 44 28 0 26 9 38 22 29 6
-3 5 -9 -3 -15z m-1439 -28 c11 -7 2 -10 -32 -10 -27 0 -48 4 -48 8 0 12 63
13 80 2z m807 -22 c-3 -8 -6 -5 -6 6 -1 11 2 17 5 13 3 -3 4 -12 1 -19z m-614
-36 c17 -15 23 -32 10 -31 -5 0 -19 14 -33 32 -24 30 -14 30 23 -1z m398 -15
c-13 -13 -15 1 -4 30 7 17 8 17 11 -1 2 -10 -1 -23 -7 -29z m251 -37 c27 -23
24 -23 -59 -9 -54 9 -63 14 -64 33 0 19 -1 19 -10 -4 -8 -18 -12 -21 -18 -11
-6 10 -10 10 -16 1 -4 -6 -13 -9 -21 -6 -8 3 -14 1 -14 -4 0 -6 -4 -10 -10
-10 -21 0 -8 16 36 43 49 29 80 34 87 15 3 -10 9 -9 22 4 17 16 19 16 31 -8 8
-14 24 -34 36 -44z m-862 50 c0 -5 -4 -10 -10 -10 -5 0 -10 5 -10 10 0 6 5 10
10 10 6 0 10 -4 10 -10z m191 -27 c10 -12 5 -11 -18 6 -18 12 -33 24 -33 27 0
9 37 -15 51 -33z m-33 -25 c20 -7 23 -12 12 -16 -8 -3 -17 -8 -20 -12 -3 -4
-24 -9 -47 -13 -40 -5 -42 -4 -32 15 8 15 17 18 36 13 16 -4 22 -2 18 5 -3 5
-14 10 -23 11 -11 0 -12 3 -4 6 6 2 12 12 12 21 1 15 2 15 11 -1 6 -10 23 -23
37 -29z m896 20 c-3 -5 -10 -6 -15 -3 -5 4 -9 2 -9 -3 0 -6 -8 -13 -17 -16
-16 -6 -16 -6 0 12 17 18 51 27 41 10z m-1182 -33 c-3 -18 0 -25 12 -25 9 0
16 -4 16 -10 0 -5 -9 -10 -20 -10 -15 0 -20 7 -20 28 0 24 7 42 15 42 1 0 0
-11 -3 -25z m1058 -20 c0 -8 -7 -15 -15 -15 -9 0 -12 6 -9 15 4 8 10 15 15 15
5 0 9 -7 9 -15z m40 -5 c-8 -5 -18 -6 -24 -3 -5 4 -1 10 10 13 24 9 34 2 14
-10z m-282 3 c-10 -2 -26 -2 -35 0 -10 3 -2 5 17 5 19 0 27 -2 18 -5z m142 -3
c0 -5 -2 -10 -4 -10 -3 0 -8 5 -11 10 -3 6 -1 10 4 10 6 0 11 -4 11 -10z m60
0 c0 -5 -2 -10 -4 -10 -3 0 -8 5 -11 10 -3 6 -1 10 4 10 6 0 11 -4 11 -10z
m-950 -35 c17 -21 5 -31 -15 -12 -8 9 -15 18 -15 21 0 11 18 6 30 -9z m200 5
c13 -9 13 -10 0 -10 -8 -1 -34 -5 -57 -9 -24 -5 -47 -4 -55 1 -10 7 -8 8 5 4
9 -3 17 -1 17 4 0 7 14 12 65 18 6 1 17 -3 25 -8z m1750 -147 c32 -192 24
-269 -33 -303 -32 -20 -32 -20 -42 1 -8 19 -15 21 -58 16 l-49 -6 7 41 c4 22
8 71 9 109 2 77 8 89 36 71 27 -17 30 -15 30 12 0 16 -7 27 -20 31 -11 3 -20
12 -20 18 1 19 32 71 70 116 26 31 36 38 42 27 4 -8 17 -67 28 -133z m-2367
-45 c-2 -35 2 -108 11 -163 13 -94 13 -101 -3 -118 -17 -18 -18 -17 -31 13
-12 29 -10 128 6 260 11 91 24 97 17 8z m465 55 c-14 -3 -16 -9 -8 -22 9 -17
5 -64 -6 -83 -3 -4 4 -8 15 -8 12 0 21 -5 21 -11 0 -5 -5 -7 -11 -3 -8 5 -8 1
0 -14 9 -17 7 -23 -9 -35 -18 -12 -18 -15 -6 -20 9 -4 15 -1 13 5 -1 6 3 12
10 15 7 3 9 -3 6 -17 -4 -16 0 -23 15 -27 11 -2 22 -13 25 -24 3 -10 2 -17 -1
-15 -12 7 -18 -140 -9 -189 3 -11 0 -26 -6 -33 -5 -7 -7 -15 -4 -18 7 -7 -49
-64 -86 -89 -15 -9 -35 -14 -44 -11 -17 6 -17 5 0 -8 23 -18 22 -29 -3 -16
-15 8 -21 6 -30 -9 -5 -11 -7 -26 -4 -34 9 -24 -48 -48 -61 -27 -3 6 -1 10 4
10 14 0 14 47 1 55 -5 3 -10 15 -10 26 0 13 -7 19 -21 19 -19 0 -20 -2 -8 -17
11 -12 11 -17 2 -20 -16 -6 -23 -5 -23 2 1 8 -22 30 -45 43 -18 10 -18 12 -2
13 9 1 22 2 29 3 18 2 21 25 4 32 -22 8 -45 59 -35 75 14 23 10 34 -5 14 -13
-19 -14 -18 -13 7 1 14 5 24 8 22 4 -2 10 3 13 12 3 8 2 12 -4 9 -6 -4 -10 7
-10 24 0 17 -4 31 -10 31 -5 0 -10 9 -10 20 0 11 -4 20 -10 20 -5 0 -6 7 -3
17 4 10 2 14 -5 9 -6 -3 -16 3 -22 14 -6 11 -7 20 -2 20 15 0 22 53 12 93 -4
20 -4 39 1 42 4 3 6 12 2 20 -3 8 -1 15 5 15 6 0 13 -6 15 -12 3 -8 6 -5 6 6
1 15 4 16 16 6 17 -14 37 -4 33 18 -4 20 60 36 80 20 9 -8 11 -7 6 6 -7 18 20
23 31 6 4 -6 15 -8 25 -5 10 3 22 1 25 -6 6 -8 9 -8 15 1 4 7 23 16 41 20 36
8 78 11 47 3z m-308 -43 c-19 -13 -30 -13 -30 0 0 6 10 10 23 10 18 0 19 -2 7
-10z m1011 -4 c5 3 9 -2 9 -10 0 -8 -4 -18 -10 -21 -5 -3 -10 -2 -10 4 0 5 -2
15 -3 23 -2 7 -2 10 0 5 3 -4 9 -5 14 -1z m-211 -86 c0 -4 -9 -10 -20 -13 -15
-4 -20 0 -20 13 0 13 5 17 20 13 11 -3 20 -9 20 -13z m1216 -12 c11 -22 14
-43 10 -71 -7 -40 -43 -117 -56 -117 -4 0 -3 24 2 53 5 28 11 78 14 110 4 31
8 57 10 57 2 0 11 -14 20 -32z m-1541 -98 c4 -6 0 -22 -9 -35 -9 -13 -16 -31
-16 -39 0 -22 -16 -28 -43 -15 -26 12 -25 17 13 77 16 23 44 29 55 12z m-647
-174 c-4 -69 -26 -45 -27 29 0 37 1 39 14 21 8 -11 14 -34 13 -50z m52 18 c15
-38 12 -46 -10 -27 -21 18 -27 53 -10 53 6 0 15 -12 20 -26z m990 -18 c0 -13
-21 -25 -55 -32 -5 -1 -16 -3 -24 -5 -25 -7 -21 16 6 33 34 21 73 23 73 4z
m-31 -85 c0 -10 -2 -11 -6 -3 -2 6 -11 12 -19 12 -15 0 -19 12 -7 23 9 10 33
-13 32 -32z m-129 -11 c0 -5 -7 -10 -16 -10 -8 0 -12 5 -9 10 3 6 10 10 16 10
5 0 9 -4 9 -10z m-230 -19 c0 -12 -20 -25 -27 -18 -7 7 6 27 18 27 5 0 9 -4 9
-9z m158 -6 c3 -3 0 -5 -7 -5 -8 0 -10 -7 -6 -19 3 -11 0 -23 -6 -27 -8 -4 -9
-3 -5 4 4 7 3 12 -3 12 -5 0 -11 -6 -14 -12 -2 -7 -7 -10 -11 -7 -4 4 1 14 10
23 20 20 11 34 -10 17 -12 -10 -15 -9 -13 7 1 16 7 19 30 16 17 -2 32 -6 35
-9z m103 2 c-1 -4 -1 -17 -1 -29 -1 -23 -1 -23 -14 2 -8 14 -12 28 -9 33 6 9
25 5 24 -6z m-408 -37 c-19 -22 -26 -21 -17 4 3 9 12 16 20 16 11 0 10 -4 -3
-20z m1302 10 c3 -5 1 -10 -4 -10 -6 0 -11 5 -11 10 0 6 2 10 4 10 3 0 8 -4
11 -10z m-1548 -86 c-3 -3 -12 -4 -19 -1 -8 3 -5 6 6 6 11 1 17 -2 13 -5z
m633 -36 c0 -12 -3 -18 -6 -15 -4 3 -16 0 -28 -8 -26 -19 -47 -19 -71 -1 -17
12 -14 13 26 11 44 -2 73 10 63 26 -3 5 0 9 5 9 6 0 11 -10 11 -22z m180 -29
c0 -5 -4 -9 -10 -9 -5 0 -10 7 -10 16 0 8 5 12 10 9 6 -3 10 -10 10 -16z m257
-31 c-3 -8 -6 -5 -6 6 -1 11 2 17 5 13 3 -3 4 -12 1 -19z m314 -71 c-10 -9
-11 -8 -5 6 3 10 9 15 12 12 3 -3 0 -11 -7 -18z m-176 -4 c-11 -3 -23 -10 -27
-17 -5 -7 -8 -7 -8 0 0 16 11 24 34 23 20 -1 20 -1 1 -6z m-525 -30 c-8 -3
-21 -10 -27 -16 -9 -7 -13 -5 -13 7 0 11 8 16 28 15 15 0 21 -3 12 -6z m-50
-13 c0 -5 -5 -10 -11 -10 -5 0 -7 5 -4 10 3 6 8 10 11 10 2 0 4 -4 4 -10z
m345 -30 c-3 -5 -12 -10 -18 -10 -7 0 -6 4 3 10 19 12 23 12 15 0z m28 -7 c-4
-10 -2 -14 5 -9 14 8 21 -19 17 -64 -2 -22 3 -42 13 -54 16 -18 16 -19 0 -13
-17 6 -23 -3 -18 -28 1 -5 -4 -5 -10 1 -9 9 -9 17 -1 33 10 17 9 21 -4 21 -9
0 -14 -4 -10 -9 3 -5 1 -12 -5 -16 -20 -12 -10 24 11 38 11 8 16 17 11 21 -5
3 -23 -10 -40 -29 -16 -19 -26 -35 -20 -35 6 0 8 -6 5 -14 -3 -8 -1 -17 6 -20
7 -2 3 -5 -8 -5 -16 -1 -17 -3 -5 -11 12 -8 12 -10 -2 -15 -10 -4 -14 -14 -11
-26 4 -16 1 -20 -13 -17 -11 2 -22 -6 -29 -19 l-11 -22 -23 22 -22 22 9 -25
c13 -35 -6 -53 -32 -29 -20 20 -36 17 -36 -7 0 -8 -4 -14 -9 -14 -5 0 -12 -10
-16 -22 -6 -20 -8 -20 -12 -5 -2 9 -8 17 -13 17 -10 0 -5 59 6 69 4 3 4 -2 1
-11 -4 -12 -1 -18 8 -18 9 0 13 11 13 31 -1 30 -2 30 -37 24 -20 -3 -41 -13
-48 -22 -16 -21 -5 -46 18 -40 23 6 26 -18 3 -27 -9 -4 -14 -13 -10 -22 3 -8
2 -12 -4 -9 -6 3 -10 1 -10 -6 0 -7 -3 -10 -6 -7 -3 4 -1 15 5 27 8 15 8 22
-1 27 -7 4 -10 4 -6 -1 8 -9 -15 -35 -31 -35 -6 0 -11 5 -11 12 0 6 -9 3 -20
-7 -19 -18 -20 -17 -20 3 0 11 9 28 21 36 14 9 18 19 13 28 -6 10 -3 9 10 -1
15 -13 19 -13 27 0 11 18 11 29 -1 29 -5 0 -7 7 -3 16 3 8 11 13 19 10 8 -3
11 2 9 14 -2 10 3 24 11 31 8 6 14 17 14 23 0 6 -5 4 -10 -4 -13 -20 -13 -4 0
20 6 11 20 25 31 31 16 8 20 8 14 -1 -4 -7 5 -6 23 4 16 8 32 22 36 31 3 9 11
13 16 10 6 -4 18 -1 26 6 9 7 23 14 31 15 8 2 26 12 38 24 15 14 30 20 42 16
11 -3 28 1 39 9 24 18 25 18 17 -2z m-353 -19 c0 -2 -12 -4 -26 -4 -14 0 -23
4 -20 9 6 8 46 4 46 -5z m-393 -31 c-17 -18 -22 -8 -11 22 5 12 10 13 17 6 8
-8 6 -16 -6 -28z m63 -44 c0 -11 -4 -17 -10 -14 -5 3 -10 -1 -10 -9 0 -9 -5
-16 -11 -16 -5 0 -8 4 -4 9 3 5 0 13 -5 16 -7 5 -5 12 7 21 25 19 33 17 33 -7z
m105 -49 c3 0 2 7 -1 15 -5 11 -2 13 10 9 9 -4 15 -9 12 -11 -6 -6 24 -38 36
-38 18 0 9 -19 -22 -52 -36 -36 -40 -37 -44 0 -2 20 1 24 18 20 17 -4 18 -3 6
6 -12 9 -13 11 -1 11 8 0 12 2 9 5 -3 3 -18 1 -34 -6 -53 -20 -72 -21 -70 -2
3 18 26 31 26 14 0 -6 7 -8 16 -4 13 5 13 7 2 14 -11 7 -11 9 0 9 9 0 11 7 6
22 -6 21 -6 21 10 5 10 -9 19 -17 21 -17z m96 -153 c-10 -9 -11 -8 -5 6 3 10
9 15 12 12 3 -3 0 -11 -7 -18z m40 -1 c-8 -10 -10 -27 -6 -48 4 -18 4 -30 0
-26 -5 4 -14 0 -22 -10 -13 -16 -14 -15 -8 5 5 18 2 20 -15 16 -12 -3 -20 0
-20 7 0 10 -3 10 -14 1 -25 -21 -24 3 1 29 15 15 22 19 18 9 -12 -31 10 -28
40 6 29 32 51 41 26 11z m19 -99 c0 -2 -10 -12 -21 -23 -22 -19 -22 -19 -8 4
12 19 29 30 29 19z m890 -301 c0 -2 -8 -10 -17 -17 -16 -13 -17 -12 -4 4 13
16 21 21 21 13z m-140 -76 c0 -5 -5 -10 -11 -10 -5 0 -7 5 -4 10 3 6 8 10 11
10 2 0 4 -4 4 -10z m15 -20 c-10 -11 -30 -20 -44 -20 -25 1 -24 2 9 19 47 25
57 25 35 1z m172 5 c0 -8 -4 -12 -9 -9 -4 3 -8 9 -8 15 0 5 4 9 8 9 5 0 9 -7
9 -15z m283 1 c0 -2 -7 -6 -15 -10 -8 -3 -15 -1 -15 4 0 6 7 10 15 10 8 0 15
-2 15 -4z m-957 -121 c-19 -26 -61 -33 -81 -13 -9 9 -12 9 -12 1 0 -7 16 -17
35 -24 31 -12 48 -29 27 -29 -5 0 -17 -7 -28 -16 -16 -13 -16 -15 -1 -10 9 3
17 1 17 -4 0 -6 8 -10 18 -10 16 -1 15 -1 -1 -11 -11 -6 -32 -8 -49 -5 -25 5
-28 3 -24 -12 4 -12 -3 -23 -22 -34 -20 -13 -22 -18 -9 -18 9 0 17 -3 17 -7 0
-14 -113 -9 -118 5 -2 6 2 12 8 12 6 0 -2 12 -19 26 -17 14 -31 32 -31 39 0 7
-4 15 -8 17 -5 1 -12 17 -15 35 -5 27 -3 33 15 39 12 3 24 1 28 -6 4 -7 13 -9
19 -6 16 10 14 26 -3 26 -18 0 -30 17 -17 24 5 4 16 -1 24 -9 19 -18 31 -19
24 -2 -7 19 54 9 71 -11 9 -12 15 -13 24 -4 7 7 23 12 38 12 14 0 36 6 50 14
34 18 44 10 23 -19z m60 18 c-7 -2 -13 -16 -13 -29 0 -14 -4 -23 -9 -20 -15 9
0 56 18 55 10 0 11 -2 4 -6z m-340 -20 c-7 -2 -19 -2 -25 0 -7 3 -2 5 12 5 14
0 19 -2 13 -5z m317 -51 c0 -13 -12 -22 -22 -16 -10 6 -1 24 13 24 5 0 9 -4 9
-8z m25 -32 c-3 -5 -12 -10 -18 -10 -7 0 -6 4 3 10 19 12 23 12 15 0z m-963
-84 c2 -36 -1 -51 -11 -54 -11 -4 -13 2 -8 28 4 18 7 44 7 58 0 42 8 20 12
-32z m746 -47 c-5 -14 -21 -14 -26 0 -2 6 4 11 13 11 9 0 15 -5 13 -11z m412
-29 c0 -5 -5 -10 -11 -10 -5 0 -7 5 -4 10 3 6 8 10 11 10 2 0 4 -4 4 -10z"/>
<path d="M1876 3454 c-10 -25 1 -29 14 -5 6 12 7 21 1 21 -5 0 -12 -7 -15 -16z"/>
<path d="M1833 3360 c0 -25 2 -35 4 -22 2 12 2 32 0 45 -2 12 -4 2 -4 -23z"/>
<path d="M1816 3264 c-4 -14 -5 -29 -2 -31 3 -3 8 7 12 21 3 15 4 29 1 32 -2
3 -8 -7 -11 -22z"/>
<path d="M1277 2819 c4 -13 8 -18 11 -10 2 7 -1 18 -6 23 -8 8 -9 4 -5 -13z"/>
<path d="M1765 1859 c-4 -6 -5 -12 -2 -15 2 -3 7 2 10 11 7 17 1 20 -8 4z"/>
<path d="M2775 1900 c-3 -5 -1 -10 4 -10 6 0 11 5 11 10 0 6 -2 10 -4 10 -3 0
-8 -4 -11 -10z"/>
<path d="M2360 1404 c0 -8 -4 -12 -10 -9 -5 3 -8 0 -5 -7 3 -7 16 -14 30 -14
20 -2 25 3 25 22 0 17 -6 24 -20 24 -11 0 -20 -7 -20 -16z"/>
<path d="M2380 1220 c0 -5 5 -10 11 -10 5 0 7 5 4 10 -3 6 -8 10 -11 10 -2 0
-4 -4 -4 -10z"/>
<path d="M1360 2060 c0 -6 7 -10 15 -10 8 0 15 2 15 4 0 2 -7 6 -15 10 -8 3
-15 1 -15 -4z"/>
<path d="M1357 1994 c-10 -13 -13 -24 -8 -24 10 0 36 39 29 45 -2 2 -11 -8
-21 -21z"/>
<path d="M2058 1053 c-27 -7 -22 -40 7 -45 13 -3 27 -3 30 0 9 9 -17 32 -29
25 -6 -4 -5 1 3 10 7 9 12 16 10 16 -2 -1 -12 -3 -21 -6z"/>
<path d="M1955 960 c4 -7 2 -16 -5 -20 -9 -5 -9 -9 -1 -14 6 -4 11 -2 11 4 0
6 4 9 9 5 5 -3 12 -2 15 3 2 4 -4 14 -16 21 -14 9 -18 9 -13 1z"/>
<path d="M1812 870 c0 -14 2 -19 5 -12 2 6 2 18 0 25 -3 6 -5 1 -5 -13z"/>
<path d="M1830 275 c-15 -8 -19 -14 -10 -15 28 0 60 12 54 21 -7 12 -14 11
-44 -6z"/>
<path d="M1985 280 c4 -6 11 -8 16 -5 14 9 11 15 -7 15 -8 0 -12 -5 -9 -10z"/>
<path d="M1880 236 c0 -2 7 -9 15 -16 9 -7 15 -8 15 -2 0 5 -7 12 -15 16 -8 3
-15 4 -15 2z"/>
<path d="M1815 180 c-27 -7 -28 -8 -5 -8 14 0 34 3 45 8 25 11 2 11 -40 0z"/>
<path d="M3361 2074 c0 -11 3 -14 6 -6 3 7 2 16 -1 19 -3 4 -6 -2 -5 -13z"/>
<path d="M842 1970 c0 -14 2 -19 5 -12 2 6 2 18 0 25 -3 6 -5 1 -5 -13z"/>
<path d="M3261 1636 c-7 -8 -8 -17 -3 -19 4 -3 13 3 20 14 14 22 0 26 -17 5z"/>
<path d="M2600 252 c-17 -6 -40 -27 -40 -37 0 -4 7 -5 15 -1 8 3 15 0 15 -7 0
-8 4 -7 10 3 8 13 11 13 19 1 7 -10 13 -11 27 -1 16 10 16 11 2 6 -13 -4 -18
0 -18 14 0 22 -9 29 -30 22z"/>
<path d="M2630 86 c0 -2 7 -7 16 -10 8 -3 12 -2 9 4 -6 10 -25 14 -25 6z"/>
</g>
</svg>
