<?xml version="1.0" standalone="no"?>
<!DOCTYPE svg PUBLIC "-//W3C//DTD SVG 20010904//EN"
 "http://www.w3.org/TR/2001/REC-SVG-20010904/DTD/svg10.dtd">
<svg version="1.0" xmlns="http://www.w3.org/2000/svg"
 width="500.000000pt" height="500.000000pt" viewBox="0 0 500.000000 500.000000"
 preserveAspectRatio="xMidYMid meet">
<metadata>
Created by potrace 1.11, written by Peter Selinger 2001-2013
</metadata>
<g transform="translate(0.000000,500.000000) scale(0.100000,-0.100000)"
fill="#000000" stroke="none">
<path d="M2400 4952 c0 -5 -12 -7 -26 -4 -19 3 -25 1 -20 -7 6 -10 -27 -17
-56 -12 -5 0 -8 -4 -8 -10 0 -8 -5 -8 -15 1 -12 10 -15 10 -15 0 0 -9 -4 -9
-13 -2 -8 7 -17 7 -29 -2 -18 -13 -57 -14 -78 -1 -8 5 -11 4 -7 -2 8 -12 -20
-26 -34 -17 -5 3 -9 0 -9 -5 0 -6 -3 -10 -7 -10 -5 1 -11 0 -15 -1 -13 -4 -27
-7 -39 -9 -5 0 -7 -7 -3 -13 5 -8 0 -7 -11 2 -15 12 -17 12 -10 1 6 -11 3 -13
-13 -9 -15 4 -19 2 -15 -8 6 -17 -13 -19 -21 -1 -3 6 -4 3 -3 -8 1 -14 -3 -19
-15 -17 -10 2 -18 -2 -18 -7 0 -6 -7 -8 -15 -5 -10 4 -15 0 -15 -11 0 -15 -2
-15 -16 -5 -8 8 -14 9 -13 4 3 -19 -1 -35 -9 -30 -5 3 -18 -3 -28 -13 -11 -9
-26 -15 -33 -13 -9 3 -11 0 -6 -8 6 -10 4 -12 -9 -7 -9 4 -14 3 -11 -2 3 -5 1
-12 -5 -16 -6 -4 -7 -11 -4 -17 4 -7 2 -8 -4 -4 -7 4 -12 2 -12 -4 0 -6 -4 -8
-10 -5 -5 3 -10 -1 -10 -9 0 -9 -7 -16 -15 -16 -9 0 -12 -6 -8 -17 5 -12 3
-14 -7 -8 -10 6 -12 4 -7 -8 3 -9 1 -19 -5 -23 -7 -5 -8 -2 -4 7 4 8 0 5 -8
-5 -9 -11 -16 -26 -16 -34 0 -8 -6 -12 -15 -8 -8 3 -14 2 -14 -2 3 -21 -2 -32
-13 -26 -8 5 -9 2 -5 -9 4 -12 1 -17 -10 -17 -13 0 -13 -3 -2 -17 7 -10 10
-15 5 -11 -11 9 -36 -14 -28 -26 3 -5 -2 -7 -11 -3 -11 4 -14 2 -11 -8 3 -8
-4 -28 -16 -45 -12 -16 -18 -30 -13 -30 4 0 0 -5 -9 -11 -10 -5 -18 -17 -18
-25 0 -8 -5 -12 -10 -9 -6 4 -10 3 -9 -2 4 -22 -2 -43 -11 -38 -6 4 -7 -1 -3
-11 5 -13 3 -15 -8 -9 -12 8 -12 6 0 -8 11 -14 11 -17 0 -17 -8 0 -14 -10 -14
-24 0 -13 4 -22 9 -18 5 3 6 -2 3 -12 -4 -10 -7 -20 -7 -22 0 -3 -3 -3 -7 -1
-5 3 -7 -11 -7 -31 1 -21 -1 -41 -5 -47 -9 -15 -10 -174 -1 -207 5 -15 5 -26
1 -23 -7 4 -6 -61 1 -96 2 -8 -2 -13 -9 -12 -7 2 -10 -4 -7 -12 4 -8 11 -15
17 -15 6 0 2 -7 -9 -16 -10 -8 -14 -13 -8 -10 7 3 10 -24 11 -82 0 -48 3 -100
6 -117 11 -51 16 -79 22 -120 3 -22 10 -72 16 -111 6 -40 9 -78 7 -85 -2 -7
-20 -14 -38 -15 -44 -4 -60 -26 -61 -88 -1 -28 -3 -62 -5 -76 -8 -59 -6 -169
4 -220 13 -63 21 -131 28 -210 2 -30 6 -66 9 -80 3 -14 8 -41 11 -60 12 -92
38 -119 106 -115 27 2 37 -10 44 -54 10 -58 39 -160 49 -177 12 -18 31 -94 26
-102 0 -1 10 -23 23 -50 13 -26 30 -67 37 -92 7 -25 18 -52 24 -60 23 -30 44
-107 50 -186 l6 -81 -44 -17 c-23 -9 -48 -16 -56 -16 -30 0 -280 -93 -387
-145 -77 -37 -135 -58 -168 -62 -63 -6 -140 -30 -186 -57 -19 -11 -59 -32 -88
-47 -29 -15 -65 -40 -81 -57 -22 -23 -41 -31 -81 -36 -63 -8 -118 -32 -124
-54 -2 -10 -7 -31 -11 -49 -3 -17 -14 -34 -23 -38 -9 -4 -48 -18 -87 -32 -99
-36 -164 -70 -290 -153 -173 -115 -155 -63 -155 -427 l0 -313 2500 0 2500 0 0
306 c0 301 0 306 -21 311 -27 7 -266 130 -301 154 -14 11 -28 19 -31 19 -25 0
-224 143 -304 217 -54 51 -152 133 -218 182 -66 50 -124 94 -130 99 -42 35
-164 111 -230 142 -77 37 -215 75 -302 83 -48 5 -94 31 -88 50 2 6 6 62 9 122
4 61 8 119 10 130 2 11 7 40 10 65 3 25 8 54 10 66 2 12 7 45 11 74 4 29 9 62
11 74 2 11 6 38 10 61 3 22 7 45 8 50 2 6 6 28 11 50 4 22 10 49 12 60 2 11 6
31 9 44 10 48 19 55 40 33 46 -49 155 -63 197 -25 68 62 152 253 180 413 3 14
11 48 19 75 16 56 16 204 0 214 -6 3 -13 23 -17 43 -13 67 -82 114 -149 101
-31 -6 -33 0 -21 64 2 15 8 39 11 53 3 14 7 157 7 319 2 230 -1 295 -11 298
-9 4 -10 9 -1 19 9 11 8 14 -1 14 -7 0 -10 7 -7 15 4 8 2 17 -3 20 -5 3 -7 12
-3 20 3 9 1 21 -5 28 -5 6 -15 30 -22 52 -7 22 -20 51 -29 65 -9 14 -26 43
-36 65 -11 22 -26 44 -32 48 -7 4 -13 21 -13 38 0 16 -9 47 -20 69 -11 22 -20
45 -20 52 0 7 -11 26 -25 42 -14 16 -25 33 -25 37 0 8 -84 95 -136 140 -16 14
-39 29 -52 33 -12 4 -22 12 -22 17 0 5 -7 9 -15 9 -9 0 -35 10 -58 22 -44 23
-48 24 -109 34 -21 3 -36 9 -34 13 2 3 -13 6 -33 7 -40 1 -101 23 -101 37 0 5
-4 5 -10 2 -5 -3 -10 -1 -10 5 0 7 -7 10 -15 6 -9 -3 -15 0 -15 8 0 8 -9 12
-25 11 -14 -2 -23 1 -19 6 5 8 -9 13 -28 10 -5 0 -8 4 -8 11 0 6 -3 8 -7 5 -3
-4 -12 1 -20 11 -8 9 -12 11 -8 5 4 -9 -2 -12 -19 -11 -15 1 -26 5 -26 8 0 10
-44 6 -52 -5 -5 -6 -8 -6 -8 1 0 7 -22 12 -52 13 -29 1 -64 4 -78 6 -14 3 -37
6 -51 8 -14 2 -32 8 -39 12 -9 5 -11 4 -6 -3 9 -15 1 -15 -25 -2 -10 6 -19 7
-19 2z"/>
</g>
</svg>
