<?xml version="1.0" standalone="no"?>
<!DOCTYPE svg PUBLIC "-//W3C//DTD SVG 20010904//EN"
 "http://www.w3.org/TR/2001/REC-SVG-20010904/DTD/svg10.dtd">
<svg version="1.0" xmlns="http://www.w3.org/2000/svg"
 width="500.000000pt" height="500.000000pt" viewBox="0 0 500.000000 500.000000"
 preserveAspectRatio="xMidYMid meet">
<metadata>
Created by potrace 1.11, written by Peter Selinger 2001-2013
</metadata>
<g transform="translate(0.000000,500.000000) scale(0.100000,-0.100000)"
fill="#000000" stroke="none">
<path d="M2360 4934 c-30 -8 -98 -21 -150 -28 -108 -16 -203 -46 -235 -76 -12
-11 -28 -20 -37 -20 -8 0 -33 -12 -54 -28 -21 -15 -52 -34 -67 -42 -36 -18
-132 -121 -153 -163 -9 -18 -24 -39 -35 -47 -17 -14 -105 -151 -149 -233 -11
-20 -23 -54 -25 -75 -2 -20 -11 -64 -20 -97 -17 -62 -19 -116 -12 -470 2 -110
10 -219 21 -280 29 -164 34 -209 26 -220 -4 -5 -5 -18 -1 -27 8 -22 1 -118 -8
-118 -4 0 -20 23 -35 50 -27 50 -39 59 -51 40 -10 -16 5 -70 20 -70 7 0 24
-15 39 -34 23 -31 26 -43 25 -123 0 -48 5 -123 10 -167 6 -43 9 -82 6 -86 -3
-5 -1 -11 4 -14 5 -3 12 -27 16 -53 9 -63 40 -193 58 -246 8 -23 23 -78 32
-122 10 -44 23 -91 30 -105 7 -14 20 -53 29 -88 8 -34 22 -72 30 -85 8 -12 21
-46 30 -76 9 -29 21 -60 28 -68 25 -30 47 -120 48 -191 l0 -73 -37 -16 c-21
-9 -50 -18 -64 -19 -52 -7 -285 -93 -388 -144 -82 -41 -122 -54 -192 -65 -69
-10 -103 -21 -156 -51 -37 -22 -81 -45 -98 -52 -16 -7 -46 -28 -65 -46 -27
-25 -49 -35 -99 -44 -76 -13 -109 -33 -117 -70 -13 -61 -20 -68 -101 -97 -108
-38 -180 -76 -308 -161 -175 -117 -155 -61 -155 -423 l0 -311 2500 0 2500 0 0
303 -1 302 -92 44 c-110 53 -319 169 -402 224 -33 22 -103 79 -155 127 -178
162 -436 353 -568 419 -83 42 -186 72 -311 91 -41 6 -81 16 -88 22 -18 15 -9
177 23 388 49 325 84 490 104 490 6 0 10 6 10 13 0 6 11 48 24 92 26 81 45
202 51 310 1 33 3 62 4 64 1 2 12 -4 25 -12 21 -14 26 -14 36 -2 7 8 15 14 18
13 30 -3 35 4 15 21 -21 18 -21 18 -3 59 11 23 42 65 70 93 45 45 55 50 81 45
35 -7 45 8 30 47 -9 24 -13 25 -40 16 -35 -12 -111 -98 -152 -172 -17 -31 -29
-44 -29 -33 0 18 -1 18 -20 1 -20 -18 -20 -17 -20 63 0 56 6 95 17 122 16 36
33 53 33 33 0 -5 4 -14 9 -22 12 -18 63 26 56 49 -3 8 2 47 10 85 11 52 15
141 15 347 0 265 -1 282 -25 375 -24 90 -88 236 -121 274 -8 8 -14 25 -14 38
0 12 -11 49 -25 82 -76 179 -265 336 -446 370 -86 16 -126 29 -244 83 -93 42
-110 47 -220 56 -66 5 -147 14 -180 20 -33 5 -60 10 -60 9 0 0 -25 -7 -55 -15z
m-420 -248 c0 -3 -4 -8 -10 -11 -5 -3 -10 -1 -10 4 0 6 5 11 10 11 6 0 10 -2
10 -4z m755 -252 c-9 -14 -15 -27 -13 -29 18 -15 48 -24 48 -15 0 7 8 9 19 5
13 -4 27 1 40 14 12 12 31 21 44 21 18 0 19 2 7 10 -13 9 -13 10 0 10 8 0 22
-5 30 -10 12 -8 12 -10 1 -10 -10 0 -11 -3 -2 -13 6 -8 7 -17 3 -22 -4 -4 8
-4 27 0 23 5 31 4 27 -4 -4 -7 1 -11 13 -11 12 0 22 1 24 3 7 6 34 -30 32 -44
-2 -12 4 -14 26 -11 18 3 29 0 29 -8 0 -7 7 -10 15 -6 9 3 15 0 15 -9 0 -8 11
-22 24 -30 13 -9 26 -25 29 -36 3 -12 10 -18 16 -14 6 3 11 1 11 -4 0 -6 -4
-11 -10 -11 -12 0 -13 -37 -1 -44 5 -3 8 -19 7 -35 -1 -22 2 -27 13 -23 9 3
12 1 7 -6 -5 -8 -2 -10 8 -6 10 4 16 1 16 -9 0 -16 57 -107 67 -107 3 0 3 13
0 30 -5 24 -4 28 10 23 13 -5 15 -1 10 24 -5 24 -2 32 11 35 22 6 44 -1 37
-12 -3 -4 2 -27 11 -51 8 -24 16 -58 17 -74 2 -17 6 -35 9 -40 10 -17 13 -94
3 -102 -4 -4 -5 -2 -1 5 4 7 2 12 -7 12 -10 0 -13 -8 -9 -26 3 -19 1 -25 -7
-20 -8 5 -8 0 -1 -20 6 -15 8 -34 6 -41 -3 -8 -1 -11 4 -8 6 3 10 2 10 -4 0
-5 3 -18 6 -28 6 -16 5 -16 -9 2 -9 11 -17 16 -17 11 0 -17 41 -96 51 -96 5 0
18 -20 29 -45 18 -40 24 -86 20 -149 0 -11 3 -22 7 -25 4 -3 8 -17 8 -31 1
-46 27 -150 37 -144 6 4 8 -5 3 -25 -4 -20 -3 -31 5 -31 7 0 9 -23 7 -70 -3
-38 0 -70 4 -70 14 0 11 -47 -3 -62 -14 -14 -19 -88 -6 -88 15 0 8 -21 -19
-58 -16 -20 -22 -33 -15 -28 6 4 12 4 12 -1 0 -16 -15 -30 -37 -37 -18 -6 -21
-11 -14 -24 6 -12 5 -24 -5 -36 -7 -10 -11 -23 -8 -27 3 -5 1 -9 -5 -9 -6 0
-8 -7 -5 -15 4 -8 1 -15 -6 -15 -6 0 -8 -4 -5 -10 3 -5 2 -10 -3 -10 -5 0 -9
-10 -8 -22 1 -15 -8 -27 -26 -36 -26 -12 -33 -27 -29 -59 1 -7 -3 -13 -9 -13
-6 0 -10 -6 -9 -12 0 -7 -2 -23 -6 -36 -7 -21 -8 -21 -20 -5 -12 16 -13 15
-18 -3 -19 -64 -37 -133 -41 -158 -3 -16 -11 -33 -18 -38 -10 -7 -10 -11 2
-21 8 -6 14 -22 12 -35 -3 -23 -4 -23 -19 -5 -8 10 -11 12 -8 5 11 -21 -4 -60
-25 -67 -11 -3 -21 -14 -21 -23 -1 -15 -2 -15 -6 1 -6 21 -8 21 -39 1 -23 -16
-24 -16 -17 2 6 17 5 17 -10 5 -9 -7 -17 -21 -17 -31 0 -10 -7 -23 -15 -30
-13 -11 -14 -8 -9 21 4 19 3 31 -1 27 -4 -4 -8 -20 -10 -35 -3 -31 -23 -86
-24 -65 -1 6 -6 12 -12 12 -6 0 -8 -9 -4 -20 5 -16 2 -20 -17 -21 -23 -1 -23
-1 2 -9 l25 -8 -28 -1 c-24 -1 -27 2 -22 19 4 11 0 29 -9 42 l-15 22 -10 -25
c-7 -18 -10 -20 -10 -6 -1 10 -5 16 -10 13 -15 -9 -32 20 -35 60 -2 21 -9 40
-15 42 -6 2 -11 8 -11 13 0 4 6 6 13 3 10 -4 14 6 13 40 -1 35 -4 42 -14 34
-9 -8 -16 -1 -28 30 -13 32 -19 38 -29 29 -8 -8 -10 -18 -4 -28 6 -13 3 -18
-11 -22 -11 -3 -19 -2 -18 2 4 37 -4 51 -30 51 -25 0 -28 3 -29 40 -2 45 -12
68 -22 52 -3 -5 -15 -12 -26 -14 -11 -1 -23 -7 -27 -12 -4 -6 -15 4 -25 21
-21 37 -53 52 -45 21 3 -14 -2 -21 -17 -25 -11 -3 -21 -8 -21 -12 0 -3 -3 -16
-6 -28 -5 -17 -2 -23 9 -23 10 0 13 -6 10 -20 -4 -14 -14 -20 -34 -20 -27 0
-28 2 -18 27 6 17 7 29 1 31 -11 3 -4 42 8 42 5 0 6 -10 3 -22 -8 -34 12 -10
25 29 9 26 8 32 -6 38 -9 3 -18 1 -20 -4 -7 -21 -22 -10 -23 17 l-1 27 -8 -25
c-4 -14 -9 -20 -10 -15 -1 6 -6 -1 -12 -15 -6 -14 -12 -20 -15 -13 -2 6 3 26
12 43 19 37 11 54 -12 25 -12 -16 -14 -16 -10 -3 3 10 1 20 -5 24 -8 5 -9 -4
-5 -29 4 -26 2 -37 -7 -37 -7 0 -12 -16 -13 -41 -2 -32 1 -40 12 -35 8 3 15 1
15 -4 0 -6 8 -10 18 -11 13 0 14 -2 2 -6 -8 -3 -18 -11 -22 -17 -5 -7 -8 -4
-8 7 0 9 -4 17 -10 17 -5 0 -10 -6 -10 -13 0 -9 -16 -14 -47 -16 -29 -1 -53
-8 -60 -17 -10 -14 -14 -14 -37 1 -14 10 -26 13 -26 9 -1 -5 -10 2 -20 15 -22
25 -28 77 -8 65 6 -4 18 2 26 12 13 18 14 17 10 -8 -3 -16 -1 -28 3 -28 5 0 9
3 10 8 0 4 2 21 4 38 4 29 3 31 -21 26 -19 -3 -24 -9 -21 -23 3 -11 1 -17 -4
-13 -5 3 -9 14 -9 24 0 10 -4 21 -10 25 -5 3 -7 13 -4 23 5 14 3 14 -10 -2 -9
-11 -16 -16 -16 -11 0 4 -10 0 -21 -11 l-22 -19 13 25 c7 14 19 29 26 33 25
15 14 25 -14 15 -17 -7 -34 -24 -42 -42 -10 -24 -14 -27 -17 -13 -6 23 -24 22
-30 -3 -5 -18 -15 -24 -28 -17 -2 1 -11 -7 -20 -18 -16 -20 -16 -20 -12 2 4
18 2 20 -16 14 -21 -8 -26 -15 -45 -61 -10 -24 -11 -24 -11 8 -1 30 -2 32 -17
18 -8 -9 -20 -16 -25 -16 -5 0 -9 -9 -9 -20 0 -11 -9 -29 -20 -40 -20 -20 -27
-36 -12 -27 4 3 8 -13 9 -34 2 -22 -1 -38 -6 -35 -12 8 -23 -24 -13 -38 5 -6
7 -27 6 -46 -1 -19 -3 -47 -3 -62 -1 -16 -6 -28 -12 -28 -15 0 -39 26 -39 43
0 16 -55 68 -64 60 -3 -4 -7 0 -8 8 -3 30 -6 54 -7 64 -1 6 -6 3 -11 -5 -8
-11 -9 -8 -4 13 5 20 3 27 -7 25 -12 -3 -15 2 -18 38 0 8 -5 13 -10 10 -13 -9
-20 41 -7 55 8 9 8 10 -1 5 -8 -5 -13 -1 -13 9 0 10 5 13 13 9 6 -4 5 1 -4 12
-26 31 -43 85 -40 125 1 20 -3 40 -8 44 -6 3 -9 11 -5 16 3 5 0 8 -8 7 -14 -3
-41 143 -32 175 3 9 0 17 -6 17 -13 0 -9 92 5 102 6 5 6 8 -1 8 -7 0 -9 17 -7
46 3 32 0 50 -9 55 -10 7 -10 9 0 9 7 0 12 13 12 33 0 19 3 37 7 41 10 10 11
46 1 46 -5 0 -7 4 -3 9 3 5 1 12 -5 16 -5 3 -10 13 -10 21 0 11 6 13 20 9 16
-5 20 -2 20 14 0 13 -7 21 -17 22 -15 0 -15 2 2 8 11 5 21 4 23 0 2 -5 10 -9
18 -9 8 0 14 -4 14 -9 0 -5 11 -12 25 -15 15 -4 30 -20 41 -44 24 -50 43 -67
84 -71 19 -1 40 -7 47 -12 13 -12 95 -6 138 10 17 6 41 12 55 14 14 2 44 13
68 24 24 12 49 20 57 17 14 -6 9 -44 -6 -44 -5 0 -9 -9 -9 -20 0 -11 -11 -38
-25 -60 -20 -32 -23 -44 -15 -65 5 -14 6 -25 1 -25 -5 0 -12 -15 -16 -32 -4
-18 -9 -41 -12 -51 -4 -16 -2 -17 16 -8 13 7 21 22 21 36 0 15 6 25 14 25 9 0
16 -19 20 -61 4 -34 10 -59 13 -55 3 3 7 36 9 73 3 72 11 120 21 137 4 6 8 26
10 44 2 19 17 75 34 124 19 57 29 108 28 137 -2 55 -45 155 -62 144 -7 -4 -5
2 3 12 8 10 10 16 3 12 -7 -4 -14 1 -18 13 -4 11 -15 20 -26 20 -11 0 -17 5
-14 10 3 6 2 10 -3 10 -5 0 -12 9 -15 20 -3 11 -11 20 -19 20 -10 0 -9 -3 2
-10 24 -15 6 -12 -30 6 -17 9 -43 17 -56 17 -13 0 -21 3 -19 7 3 4 -2 11 -11
14 -8 3 -13 2 -10 -3 7 -10 -45 -8 -63 3 -11 7 -156 19 -211 17 -14 -1 -29 -7
-35 -14 -5 -6 -19 -19 -30 -27 -16 -11 -15 -9 3 12 13 14 22 32 21 39 -2 8 1
33 5 57 5 29 4 47 -4 57 -8 10 -9 15 -2 15 7 0 7 10 0 33 -5 17 -11 39 -12 47
-1 9 -5 21 -10 28 -4 6 -3 12 3 12 5 0 7 12 4 28 -4 24 -5 45 -2 119 1 13 4
21 8 19 4 -3 13 8 20 24 7 16 23 39 36 52 14 13 25 29 25 35 0 7 3 12 8 12 44
-7 60 3 80 49 13 27 22 39 22 27 0 -16 3 -15 15 9 8 15 15 36 15 45 0 24 37
61 62 61 19 0 20 -4 13 -46 -9 -61 16 -57 28 4 7 37 11 41 31 36 14 -3 27 1
35 10 12 14 10 16 -13 16 -16 0 -25 4 -21 10 3 6 15 10 26 10 10 0 19 -4 19
-10 0 -5 7 -10 16 -10 14 0 14 -1 0 -16 -27 -27 -20 -44 14 -34 21 6 30 5 30
-3 1 -7 9 -2 19 11 11 12 22 22 25 22 3 0 16 10 27 21 17 17 23 19 30 8 8 -13
10 -12 13 10 2 18 17 25 25 12 11 -18 149 26 162 51 5 10 15 18 21 18 7 0 22
9 34 21 12 11 30 22 40 24 11 2 19 4 19 5 0 1 12 4 28 6 21 4 27 1 27 -13 0
-16 3 -15 18 4 20 26 68 46 92 38 10 -3 21 -1 25 5 3 5 13 10 22 10 13 0 13
-3 -2 -26z m511 -161 c-11 -11 -17 4 -9 23 7 18 8 18 11 1 2 -10 1 -21 -2 -24z
m16 -80 c13 -27 8 -36 -16 -27 -11 4 -16 18 -16 43 0 43 14 65 18 29 2 -12 8
-33 14 -45z m53 -42 c0 -13 -6 -26 -11 -28 -12 -4 -15 20 -7 62 5 26 7 27 13
10 4 -10 6 -30 5 -44z m-21 -96 c-4 -8 -8 -15 -10 -15 -2 0 -4 7 -4 15 0 8 4
15 10 15 5 0 7 -7 4 -15z m156 -291 c0 -8 -4 -12 -10 -9 -5 3 -10 10 -10 16 0
5 5 9 10 9 6 0 10 -7 10 -16z m-1632 -395 c2 -5 8 -7 13 -4 5 4 6 -1 3 -9 -6
-15 -34 -24 -94 -28 -19 -1 -43 -9 -53 -17 -9 -8 -20 -11 -23 -8 -4 4 1 9 10
13 9 3 16 15 16 25 0 10 1 19 3 19 1 0 20 7 42 15 39 14 77 11 83 -6z m-240
-42 c0 -13 -6 -24 -12 -24 -8 0 -10 11 -8 29 5 33 20 29 20 -5z m450 -39 c37
-18 69 -35 72 -38 3 -3 16 -6 29 -8 30 -3 81 -39 81 -57 0 -21 -38 -29 -56
-11 -77 77 -164 98 -296 70 -30 -6 -63 17 -56 38 6 17 66 36 116 37 29 1 64
-10 110 -31z m-458 -28 c0 -5 -5 -10 -11 -10 -5 0 -7 5 -4 10 3 6 8 10 11 10
2 0 4 -4 4 -10z m295 -86 c0 -36 5 -50 24 -65 25 -21 91 -26 91 -7 0 6 8 4 19
-6 13 -12 21 -14 26 -6 4 6 32 10 70 8 121 -5 50 -24 -128 -34 -78 -4 -106 -2
-142 12 -25 9 -45 20 -45 23 0 4 9 14 20 24 11 9 20 25 19 34 0 16 -1 16 -8
-1 -6 -17 -8 -17 -14 -4 -6 16 11 36 48 56 11 6 20 12 20 12 0 0 0 -21 0 -46z
m105 36 c0 -5 -4 -10 -10 -10 -5 0 -10 5 -10 10 0 6 5 10 10 10 6 0 10 -4 10
-10z m149 -34 c61 -42 56 -48 -47 -61 l-53 -7 19 32 c11 17 18 40 15 50 -7 26
16 21 66 -14z m-402 12 c-2 -7 -10 -12 -17 -10 -11 2 -11 0 -1 -11 9 -12 8
-16 -3 -20 -9 -4 -12 -14 -9 -26 5 -21 -11 -29 -22 -11 -3 6 -1 10 5 10 8 0 7
6 -1 22 -10 18 -9 20 7 15 17 -6 17 -5 2 5 -15 11 -15 13 0 25 22 16 45 17 39
1z m1969 -295 c-10 -10 -19 5 -10 18 6 11 8 11 12 0 2 -7 1 -15 -2 -18z m-355
-560 c-8 -15 -10 -15 -11 -2 0 17 10 32 18 25 2 -3 -1 -13 -7 -23z m-1149 -5
c-7 -7 -12 -8 -12 -2 0 6 3 14 7 17 3 4 9 5 12 2 2 -3 -1 -11 -7 -17z m-92
-13 c0 -8 -4 -15 -10 -15 -5 0 -7 7 -4 15 4 8 8 15 10 15 2 0 4 -7 4 -15z
m522 -37 c-13 -13 -26 8 -17 30 6 16 7 16 17 -1 7 -13 7 -22 0 -29z m-485 -20
c-3 -8 -6 -5 -6 6 -1 11 2 17 5 13 3 -3 4 -12 1 -19z m73 -4 c0 -22 -2 -24
-14 -14 -8 6 -12 18 -9 26 9 23 23 16 23 -12z m-113 -16 c-3 -7 -5 -2 -5 12 0
14 2 19 5 13 2 -7 2 -19 0 -25z m423 7 c0 -15 -18 -30 -27 -22 -2 3 -2 15 2
26 7 23 25 19 25 -4z m153 0 c-3 -9 -8 -14 -10 -11 -3 3 -2 9 2 15 9 16 15 13
8 -4z m-613 -15 c-8 -5 -17 -7 -19 -4 -3 3 1 9 9 14 8 5 17 7 19 4 3 -3 -1 -9
-9 -14z m570 -20 c-6 -11 -15 -18 -20 -15 -11 7 -1 37 14 47 16 11 19 -7 6
-32z m-460 20 c0 -5 -4 -10 -10 -10 -5 0 -10 5 -10 10 0 6 5 10 10 10 6 0 10
-4 10 -10z m572 -22 c-6 -6 -8 -17 -5 -24 3 -8 1 -14 -5 -14 -6 0 -12 6 -15
13 -5 16 14 47 26 40 5 -3 4 -10 -1 -15z m57 -43 c0 -5 -4 -3 -9 5 -5 8 -9 22
-9 30 0 16 17 -16 18 -35z m-529 15 c0 -5 -5 -10 -11 -10 -5 0 -7 5 -4 10 3 6
8 10 11 10 2 0 4 -4 4 -10z m240 -29 c-32 -6 -34 -7 -15 -18 11 -7 14 -13 8
-13 -7 0 -13 -9 -13 -21 0 -15 5 -19 18 -15 75 21 181 44 197 43 11 -1 36 -12
56 -24 20 -13 41 -23 48 -23 6 0 11 -4 11 -10 0 -5 7 -10 16 -10 11 0 14 6 9
23 -6 20 -5 21 8 5 8 -10 22 -18 31 -18 22 0 20 -7 -9 -33 -14 -12 -27 -35
-29 -52 -2 -16 -4 -33 -5 -37 0 -3 -10 -4 -20 -1 -17 4 -19 0 -15 -35 2 -22 4
-44 5 -49 3 -19 -2 -21 -30 -13 -34 9 -50 -10 -25 -30 20 -18 17 -25 -11 -25
-19 0 -23 4 -19 18 3 9 1 17 -5 17 -17 0 -17 -70 1 -103 5 -10 7 -21 4 -24 -8
-8 -44 34 -52 60 -5 17 -9 15 -21 -19 -8 -21 -17 -49 -20 -62 -9 -36 -19 -34
-15 3 2 18 -1 36 -7 39 -7 5 -11 -1 -11 -15 0 -18 -2 -19 -15 -9 -12 10 -15
10 -15 -2 0 -8 5 -19 11 -25 14 -14 -15 -43 -45 -43 -12 0 -28 -6 -34 -12 -17
-17 -31 5 -33 47 l-1 30 -7 -30 c-7 -30 -7 -30 -15 -6 -8 22 -10 23 -21 8 -6
-9 -14 -14 -18 -11 -3 3 -8 -8 -12 -25 -4 -17 -10 -33 -15 -36 -15 -9 -39 6
-33 21 3 8 -1 14 -10 14 -8 0 -18 -7 -21 -16 -3 -8 -2 -12 4 -9 11 7 14 -28 4
-38 -12 -11 -33 5 -27 21 4 12 -1 10 -20 -7 -23 -21 -27 -22 -33 -8 -3 9 -11
14 -17 10 -7 -4 -8 6 -4 31 3 20 2 34 -3 31 -5 -3 -10 0 -13 7 -2 7 -2 1 0
-14 4 -22 1 -28 -13 -28 -9 0 -15 3 -11 6 8 8 -16 33 -25 27 -5 -2 -8 3 -8 11
0 9 -7 16 -15 16 -8 0 -15 8 -15 18 0 14 -2 15 -10 2 -8 -13 -10 -12 -10 3 0
9 -7 17 -15 17 -8 0 -15 8 -16 18 0 11 -2 13 -6 4 -3 -9 -10 -4 -19 13 -8 15
-11 31 -8 36 3 5 0 9 -5 9 -6 0 -11 -7 -11 -15 0 -8 -4 -15 -9 -15 -4 0 -6 11
-3 25 4 23 -5 31 -31 26 -5 -1 -6 3 -2 9 3 5 2 10 -4 10 -5 0 -8 8 -6 18 1 9
-2 23 -8 30 -6 8 -6 12 3 12 6 0 0 14 -15 32 -18 21 -23 33 -15 38 9 6 9 9 1
14 -6 4 -9 12 -5 17 3 5 9 7 14 4 5 -3 11 8 15 25 4 16 12 30 18 30 7 0 18 10
26 21 l13 22 24 -29 c13 -16 23 -35 24 -41 0 -18 17 -16 24 3 3 8 2 13 -3 10
-5 -3 -11 3 -14 14 -7 26 5 32 38 20 37 -14 95 6 95 33 0 13 -5 17 -15 13 -9
-3 -15 0 -15 8 0 18 53 27 143 25 37 -1 69 0 71 2 3 2 40 5 83 5 49 1 65 -1
43 -5z m330 -19 c0 -15 -2 -15 -10 -2 -13 20 -13 33 0 25 6 -3 10 -14 10 -23z
m40 -15 c0 -18 -2 -19 -10 -7 -13 20 -13 43 0 35 6 -3 10 -16 10 -28z m341
-71 c8 4 9 3 5 -4 -4 -7 -15 -12 -25 -12 -9 0 -22 -5 -29 -12 -9 -9 -12 -9
-12 0 0 22 24 41 37 30 7 -5 18 -6 24 -2z m-1434 -32 c-3 -3 -12 -4 -19 -1 -8
3 -5 6 6 6 11 1 17 -2 13 -5z m1353 -16 c0 -6 -3 -8 -7 -5 -3 4 -13 1 -22 -6
-14 -11 -14 -10 -2 6 15 20 31 22 31 5z m-240 -8 c0 -5 -2 -10 -4 -10 -3 0 -8
5 -11 10 -3 6 -1 10 4 10 6 0 11 -4 11 -10z m286 -19 c-4 -5 -1 -12 4 -14 6
-3 5 -4 -2 -3 -15 3 -23 26 -8 26 6 0 9 -4 6 -9z m-336 -51 c0 -5 -5 -10 -11
-10 -5 0 -7 5 -4 10 3 6 8 10 11 10 2 0 4 -4 4 -10z m592 -17 c-3 -16 -7 -22
-10 -15 -4 13 4 42 11 42 2 0 2 -12 -1 -27z m-390 -82 c-9 -16 -19 -28 -21
-25 -6 6 21 54 30 54 5 0 0 -13 -9 -29z m-235 -21 c11 -16 10 -18 -1 -14 -15
6 -30 34 -18 34 4 0 13 -9 19 -20z m263 10 c0 -5 -5 -10 -11 -10 -5 0 -7 5 -4
10 3 6 8 10 11 10 2 0 4 -4 4 -10z m323 -10 c-3 -11 -9 -20 -13 -20 -5 0 -6 9
-3 20 3 11 9 20 13 20 5 0 6 -9 3 -20z m-40 -27 c-4 -11 -3 -14 5 -9 16 10 15
1 -1 -12 -10 -8 -13 -5 -15 14 -1 13 3 24 8 24 5 0 6 -7 3 -17z m37 -33 c0 -5
-6 -10 -14 -10 -17 0 -31 -18 -21 -28 3 -3 10 0 14 7 15 24 34 -25 23 -58 -6
-16 -6 -34 -2 -42 5 -7 6 -18 2 -23 -3 -6 -7 -17 -7 -26 -1 -8 -5 -25 -9 -37
-5 -15 -3 -23 4 -23 6 0 8 5 4 12 -4 7 -3 8 5 4 6 -4 9 -11 6 -16 -3 -5 -7
-98 -10 -206 -2 -108 -6 -199 -9 -201 -3 -3 -1 -15 5 -26 9 -15 8 -18 -2 -12
-8 6 -10 4 -3 -6 4 -8 7 -24 6 -35 -3 -22 23 -41 33 -24 5 9 16 120 17 182 1
28 4 35 13 28 6 -5 21 -8 34 -5 12 2 19 0 16 -6 -4 -5 -1 -9 5 -9 7 0 10 -6 7
-14 -5 -11 2 -13 29 -10 22 3 33 1 29 -6 -4 -6 1 -7 11 -3 12 4 15 3 10 -5 -4
-7 -3 -12 2 -12 6 0 13 8 17 18 6 15 8 15 26 -7 10 -13 19 -29 19 -37 0 -8 5
-14 10 -14 17 0 11 -39 -10 -60 -11 -11 -20 -25 -20 -30 0 -31 -96 -192 -144
-243 -30 -32 -69 -82 -86 -113 -20 -34 -52 -69 -85 -94 -30 -22 -56 -44 -60
-50 -12 -19 -70 -44 -135 -56 -36 -7 -90 -22 -120 -33 -30 -11 -80 -20 -111
-21 -31 0 -103 -13 -160 -30 -93 -26 -121 -29 -264 -31 -160 -3 -160 -2 -267
33 -120 41 -121 41 -239 111 -95 55 -120 85 -122 146 -1 22 -5 37 -9 35 -5 -3
-6 -9 -3 -14 3 -4 -2 -11 -11 -14 -16 -6 -104 81 -134 133 -23 40 -21 281 3
340 17 41 38 71 52 71 4 0 13 7 21 15 40 40 61 -73 28 -151 -9 -21 -18 -50
-21 -64 -2 -13 -6 -27 -9 -29 -2 -2 4 -13 13 -24 10 -11 12 -17 4 -12 -10 6
-12 1 -6 -24 4 -19 2 -37 -5 -46 -8 -9 -8 -15 0 -20 6 -3 8 -11 4 -16 -3 -5 0
-16 6 -25 10 -12 16 -12 28 -2 13 11 15 10 9 -5 -4 -11 -1 -20 8 -23 8 -4 12
-11 8 -18 -4 -6 1 -5 10 3 14 11 15 17 5 28 -9 11 -9 16 2 23 11 7 11 14 3 33
-9 18 -9 27 0 36 6 6 7 11 1 11 -6 0 -9 72 -9 184 0 101 2 183 5 181 3 -2 6
11 6 28 5 94 8 107 28 101 10 -4 22 0 27 7 6 11 15 6 39 -19 16 -18 30 -40 30
-49 0 -8 23 -37 50 -64 28 -27 48 -54 45 -59 -3 -6 -2 -10 3 -10 11 0 24 -54
28 -114 1 -21 8 -43 16 -47 7 -5 9 -9 5 -9 -5 0 1 -15 12 -33 11 -19 18 -37
14 -40 -3 -4 0 -7 7 -7 7 0 10 -3 6 -7 -3 -4 3 -12 15 -19 l22 -12 -22 -11
c-22 -12 -22 -12 13 -47 34 -34 46 -41 46 -26 0 5 -11 14 -25 20 -14 6 -25 17
-25 24 0 11 2 11 8 0 5 -7 19 -14 31 -17 19 -3 21 -2 11 10 -13 16 -7 18 27 9
13 -4 20 -10 17 -15 -3 -5 2 -6 11 -3 10 4 14 13 11 23 -3 9 4 4 17 -11 23
-28 47 -37 47 -18 0 6 11 15 25 20 18 7 24 16 23 35 -1 14 -7 25 -12 25 -16 0
-106 104 -95 111 5 3 -6 17 -25 30 -20 13 -35 31 -33 39 1 8 -4 15 -10 16 -24
3 -25 4 -15 17 7 8 5 18 -8 34 -9 12 -20 19 -24 16 -3 -4 -6 -1 -6 6 0 8 8 11
20 8 16 -4 18 -2 10 13 -7 13 -6 21 2 26 6 4 14 2 16 -4 5 -15 42 -16 42 -1 0
7 12 9 36 4 24 -4 39 -2 44 5 9 15 104 19 117 5 18 -19 18 -22 3 -40 -14 -17
-14 -17 8 -4 12 8 22 21 22 29 0 28 21 41 38 24 8 -8 21 -13 28 -10 9 3 11 0
7 -12 -4 -9 5 -3 20 13 l26 30 1 -28 c0 -15 -7 -40 -16 -55 -15 -25 -15 -26 1
-7 9 11 21 27 26 35 8 11 11 12 15 2 3 -6 9 -10 13 -8 4 3 6 -7 3 -23 -4 -29
21 -61 33 -41 3 5 1 10 -4 10 -17 0 -13 67 5 84 21 21 31 20 37 -4 3 -11 11
-20 19 -20 10 0 9 3 -2 10 -12 7 -12 12 -2 22 9 9 12 9 12 -2 0 -9 7 -6 20 8
26 27 27 27 26 0 -1 -15 6 -24 23 -28 27 -6 41 -30 18 -30 -8 0 -26 9 -41 21
-28 22 -36 11 -10 -15 14 -15 13 -16 -7 -16 -17 0 -20 -3 -12 -11 7 -7 22 -8
46 -1 21 6 39 6 44 1 6 -6 36 16 77 57 37 36 70 63 73 60 3 -3 0 -14 -8 -23
-13 -16 -12 -17 4 -4 9 7 17 19 17 27 0 7 9 16 20 19 29 9 25 30 -12 60 l-33
26 27 -5 c15 -3 31 -7 35 -9 5 -2 17 -1 28 4 18 7 18 8 -5 8 -14 1 -32 6 -40
12 -12 9 -11 10 8 6 15 -3 22 0 22 9 0 19 16 18 24 -1 3 -9 17 -15 33 -14 21
1 23 3 8 6 -11 3 -27 14 -36 24 -9 10 -18 16 -22 13 -3 -3 -8 -1 -12 5 -4 7
10 11 40 11 31 0 45 4 44 13 -4 31 2 47 19 47 12 0 23 13 31 36 9 25 16 33 24
25 7 -7 6 -15 -4 -28 -13 -16 -12 -17 2 -5 9 7 25 9 35 5 18 -7 18 -6 2 11
-30 30 -15 72 17 46 9 -7 15 -8 20 0 3 5 2 10 -4 10 -5 0 -13 14 -16 32 -7 29
-3 36 40 75 48 43 65 52 65 33z m-733 -42 c-3 -7 -5 -2 -5 12 0 14 2 19 5 13
2 -7 2 -19 0 -25z m98 12 c3 -5 2 -10 -4 -10 -5 0 -13 5 -16 10 -3 6 -2 10 4
10 5 0 13 -4 16 -10z m-41 -45 c3 -8 1 -15 -4 -15 -6 0 -10 7 -10 15 0 8 2 15
4 15 2 0 6 -7 10 -15z m-598 -37 c-11 -15 -16 -18 -16 -7 0 16 21 42 28 34 2
-2 -3 -14 -12 -27z m1151 -10 c-3 -8 -6 -5 -6 6 -1 11 2 17 5 13 3 -3 4 -12 1
-19z m-844 -2 c6 -16 -16 -40 -26 -29 -13 13 -7 25 9 19 14 -5 15 -4 4 9 -7 8
-8 15 -2 15 5 0 12 -6 15 -14z m30 -3 c-3 -7 -6 -13 -8 -13 -2 0 -5 6 -8 13
-3 8 1 14 8 14 7 0 11 -6 8 -14z m-98 -33 c3 -5 1 -10 -4 -10 -6 0 -11 5 -11
10 0 6 2 10 4 10 3 0 8 -4 11 -10z m-475 -158 c0 -5 10 -14 23 -20 12 -6 16
-11 9 -11 -7 -1 -22 4 -33 9 -13 7 -19 7 -19 0 0 -5 4 -10 9 -10 5 0 12 -8 15
-17 6 -15 4 -15 -14 2 -23 21 -27 55 -5 55 8 0 15 -4 15 -8z m1090 -112 c0 -5
-4 -10 -10 -10 -5 0 -10 5 -10 10 0 6 5 10 10 10 6 0 10 -4 10 -10z m56 -4
c-2 -16 -59 -66 -75 -66 -8 0 -9 6 -2 19 6 10 7 22 3 27 -4 5 0 3 8 -3 17 -13
50 4 50 26 0 6 4 11 9 11 5 0 8 -6 7 -14z m-282 -41 c3 -8 1 -15 -4 -15 -6 0
-10 7 -10 15 0 8 2 15 4 15 2 0 6 -7 10 -15z m56 1 c0 -3 -4 -8 -10 -11 -5 -3
-10 -1 -10 4 0 6 5 11 10 11 6 0 10 -2 10 -4z m740 -6 c-20 -13 -43 -13 -35 0
3 6 16 10 28 10 18 0 19 -2 7 -10z m-629 -20 c-13 -11 -28 -20 -35 -20 -6 0 3
9 19 19 39 25 46 25 16 1z m546 -16 c0 -7 -6 -10 -14 -7 -7 3 -13 8 -13 12 0
4 6 8 13 8 8 0 14 -6 14 -13z m-1132 -4 c3 -5 1 -10 -4 -10 -6 0 -11 5 -11 10
0 6 2 10 4 10 3 0 8 -4 11 -10z m-601 -24 c-10 -8 -21 -12 -24 -9 -3 2 4 11
14 19 11 7 22 12 25 9 2 -3 -4 -12 -15 -19z m1163 8 c-3 -3 -12 -4 -19 -1 -8
3 -5 6 6 6 11 1 17 -2 13 -5z m3 -29 c-7 -8 -18 -15 -24 -15 -6 0 -2 7 8 15
25 19 32 19 16 0z m-595 -295 c-3 -5 -12 -10 -18 -10 -7 0 -6 4 3 10 19 12 23
12 15 0z m-1040 -629 c3 -5 0 -13 -6 -17 -7 -4 -9 -3 -5 4 3 5 0 13 -6 15 -9
4 -10 6 -1 6 6 1 14 -3 18 -8z"/>
<path d="M2625 4420 c-3 -5 -1 -10 4 -10 6 0 11 5 11 10 0 6 -2 10 -4 10 -3 0
-8 -4 -11 -10z"/>
<path d="M2948 4343 c6 -2 18 -2 25 0 6 3 1 5 -13 5 -14 0 -19 -2 -12 -5z"/>
<path d="M3030 4291 c0 -5 9 -7 20 -4 11 3 20 7 20 9 0 2 -9 4 -20 4 -11 0
-20 -4 -20 -9z"/>
<path d="M2295 4279 c-4 -6 -5 -12 -2 -15 2 -3 7 2 10 11 7 17 1 20 -8 4z"/>
<path d="M3160 4076 c0 -2 7 -9 15 -16 13 -11 14 -10 9 4 -5 14 -24 23 -24 12z"/>
<path d="M3291 3764 c0 -11 3 -14 6 -6 3 7 2 16 -1 19 -3 4 -6 -2 -5 -13z"/>
<path d="M3003 3553 c-13 -3 -23 -9 -23 -15 0 -7 -11 -8 -32 -3 -46 11 -158
12 -158 1 0 -5 -19 -6 -42 -3 -28 4 -56 0 -88 -13 -29 -11 -51 -15 -56 -10 -6
6 -28 1 -57 -12 -38 -18 -47 -27 -47 -47 0 -14 -5 -33 -10 -41 -8 -12 -10 -12
-10 -1 0 11 -5 10 -21 -5 -11 -10 -18 -26 -16 -36 3 -10 0 -18 -6 -18 -7 0 -5
-5 3 -10 12 -8 12 -10 1 -10 -9 0 -12 -8 -9 -25 3 -14 -1 -30 -8 -36 -13 -10
-12 -38 2 -61 4 -7 9 -24 10 -38 5 -44 14 -70 24 -70 6 0 9 3 9 8 -5 28 4 55
19 59 9 2 28 27 42 55 30 60 74 98 92 80 7 -7 8 -12 3 -12 -24 -1 -47 -32 -52
-67 -3 -21 -11 -45 -19 -54 -8 -8 -14 -21 -14 -27 0 -6 -11 -14 -25 -18 -29
-7 -31 -25 -8 -65 22 -36 43 -39 37 -4 -5 27 5 32 24 13 7 -7 12 -8 12 -3 0 4
8 1 18 -7 15 -14 32 -18 127 -34 80 -14 166 -15 202 -4 50 16 113 59 113 78 0
9 7 13 19 9 12 -3 23 4 35 24 10 16 15 33 12 38 -4 5 -1 11 6 13 9 3 8 9 -5
22 -9 10 -17 24 -17 32 0 8 0 17 0 22 0 4 7 7 14 7 8 0 17 3 21 6 3 4 19 5 34
3 27 -3 28 -2 18 20 -9 18 -82 63 -117 71 -3 1 -18 7 -35 14 -16 7 -52 17 -80
22 -55 10 -71 21 -60 39 5 9 30 11 79 8 52 -3 75 -1 84 9 15 15 52 18 52 3 0
-5 3 -9 8 -9 29 5 72 -29 75 -60 1 -13 12 -24 29 -30 20 -7 26 -15 23 -31 -2
-12 4 -29 16 -41 24 -24 47 -15 25 10 -20 22 -20 36 0 66 9 14 12 25 6 25 -6
0 -34 25 -63 55 -29 30 -56 55 -61 55 -5 0 -25 11 -46 23 -41 27 -76 36 -109
30z m-56 -189 c63 -21 69 -28 50 -57 -15 -24 -16 -24 -83 -11 -37 6 -81 10
-98 8 -71 -8 -106 -16 -112 -25 -3 -5 -11 -9 -17 -9 -7 0 -4 5 5 11 19 11 13
43 -7 35 -6 -2 -18 -1 -25 4 -9 6 -7 11 11 21 75 40 195 50 276 23z m-179
-129 c-1 -26 6 -43 26 -64 52 -54 140 -32 171 43 l13 31 10 -26 c17 -44 18
-64 3 -64 -8 0 -17 -7 -20 -15 -3 -8 -15 -16 -26 -17 -20 -3 -56 -10 -65 -13
-3 -2 -7 -2 -10 -2 -8 1 -292 12 -307 12 -7 0 -13 4 -13 8 0 5 36 8 80 6 44
-1 80 1 80 6 0 11 -94 23 -119 15 -12 -4 -21 -2 -21 4 0 16 105 79 144 87 20
3 33 10 30 15 -3 5 2 9 10 9 11 0 15 -10 14 -35z m92 25 c0 -5 -2 -10 -4 -10
-3 0 -8 5 -11 10 -3 6 -1 10 4 10 6 0 11 -4 11 -10z"/>
<path d="M2726 3311 c-4 -5 3 -7 14 -4 23 6 26 13 6 13 -8 0 -17 -4 -20 -9z"/>
<path d="M2730 3140 c8 -5 24 -10 34 -10 26 0 18 6 -19 14 -22 5 -26 4 -15 -4z"/>
<path d="M1588 3083 c7 -3 16 -2 19 1 4 3 -2 6 -13 5 -11 0 -14 -3 -6 -6z"/>
<path d="M2544 2712 c22 -44 32 -112 16 -122 -6 -4 -31 -3 -53 2 -23 5 -59 6
-82 2 -61 -11 -75 -11 -81 -2 -10 15 -20 8 -36 -25 -16 -33 -17 -33 -77 -31
-67 3 -96 19 -125 69 l-17 30 4 -37 c2 -31 0 -35 -11 -26 -8 7 -32 14 -55 18
-37 5 -42 8 -42 32 1 15 -3 24 -8 21 -7 -4 -5 -96 3 -130 1 -5 42 -25 58 -28
9 -2 26 -7 37 -11 18 -7 18 -5 -3 18 -17 19 -20 28 -11 34 15 9 83 -62 73 -78
-4 -6 -3 -8 3 -5 5 3 36 2 69 -3 64 -8 97 4 140 51 41 45 133 75 149 49 4 -6
1 -17 -5 -25 -17 -21 11 -20 53 1 43 22 47 30 47 94 0 57 -24 120 -48 128 -11
3 -10 -3 2 -26z m-215 -163 c-16 -10 -23 -4 -14 10 3 6 11 8 17 5 6 -4 5 -9
-3 -15z"/>
<path d="M3373 2555 c0 -8 4 -12 9 -9 5 3 6 10 3 15 -9 13 -12 11 -12 -6z"/>
<path d="M2377 2449 c7 -7 15 -10 18 -7 3 3 -2 9 -12 12 -14 6 -15 5 -6 -5z"/>
<path d="M2301 2423 c0 -4 4 -17 9 -28 8 -19 9 -19 9 2 1 12 -3 25 -9 28 -5 3
-10 3 -9 -2z"/>
<path d="M2330 2358 c0 -5 -7 -8 -15 -4 -16 6 -19 -3 -8 -30 6 -16 7 -16 14 2
6 15 8 12 8 -13 1 -38 20 -43 39 -12 12 18 10 23 -12 44 -14 13 -26 19 -26 13z"/>
<path d="M2277 2313 c-4 -6 3 -19 16 -29 12 -11 17 -12 11 -4 -6 8 -13 22 -16
30 -3 9 -7 10 -11 3z"/>
<path d="M2720 2284 c0 -13 18 -39 24 -34 2 3 -2 14 -10 24 -8 11 -14 16 -14
10z"/>
<path d="M3173 2195 c-6 -6 -7 -18 -3 -25 6 -9 10 -7 15 9 8 27 4 33 -12 16z"/>
<path d="M2981 2054 c0 -11 3 -14 6 -6 3 7 2 16 -1 19 -3 4 -6 -2 -5 -13z"/>
<path d="M2104 3201 c16 -17 32 -29 34 -26 7 7 -18 34 -42 47 -16 8 -14 3 8
-21z"/>
<path d="M2390 2130 c0 -5 7 -10 15 -10 8 0 15 5 15 10 0 6 -7 10 -15 10 -8 0
-15 -4 -15 -10z"/>
<path d="M2053 2005 c0 -25 20 -34 32 -15 9 15 25 2 25 -21 0 -14 7 -19 25
-19 14 0 25 -5 25 -11 0 -5 5 -7 10 -4 6 3 10 -1 10 -9 0 -9 4 -16 9 -16 5 0
13 -10 17 -22 6 -19 7 -19 16 -5 11 21 29 23 22 2 -4 -10 0 -13 15 -10 24 4
28 -10 5 -19 -10 -4 -13 -2 -8 6 4 7 3 8 -4 4 -14 -8 -16 -56 -3 -56 5 0 12 7
15 16 3 8 10 13 15 9 5 -3 12 -1 16 5 4 6 10 8 15 5 5 -3 12 6 16 20 3 14 9
24 12 21 6 -6 43 39 41 51 -4 22 3 25 17 7 15 -18 15 -18 9 4 -5 16 -2 22 10
22 9 0 15 6 13 13 -6 16 -49 22 -58 7 -5 -8 -14 -8 -35 0 -18 7 -31 7 -39 0
-8 -6 -24 -6 -42 -1 -17 5 -49 7 -72 5 -23 -1 -42 1 -42 6 0 13 -54 19 -62 7
-5 -8 -8 -6 -8 6 0 9 -4 17 -9 17 -5 0 -8 -11 -8 -25z m307 -85 c0 -5 -4 -10
-10 -10 -5 0 -10 5 -10 10 0 6 5 10 10 10 6 0 10 -4 10 -10z"/>
<path d="M2445 2007 c-11 -9 -14 -16 -7 -21 14 -8 39 2 46 20 7 18 -14 18 -39
1z"/>
<path d="M2680 1892 c6 -13 14 -21 18 -18 3 4 -2 14 -12 24 -18 16 -18 16 -6
-6z"/>
<path d="M2005 1760 c3 -5 8 -10 11 -10 2 0 4 5 4 10 0 6 -5 10 -11 10 -5 0
-7 -4 -4 -10z"/>
<path d="M2461 1703 c0 -6 -4 -19 -7 -28 -4 -10 -2 -15 7 -13 8 2 13 -3 12 -9
-2 -7 6 -13 17 -13 14 0 20 7 20 23 0 18 -2 19 -10 7 -8 -12 -10 -10 -10 10 0
18 -3 21 -9 11 -7 -11 -10 -10 -14 5 -2 10 -5 14 -6 7z"/>
<path d="M3255 1670 c-3 -5 -1 -10 4 -10 6 0 11 5 11 10 0 6 -2 10 -4 10 -3 0
-8 -4 -11 -10z"/>
<path d="M3140 1480 c-9 -6 -10 -10 -3 -10 6 0 15 5 18 10 8 12 4 12 -15 0z"/>
<path d="M3095 1421 c-3 -5 -1 -12 5 -16 5 -3 10 1 10 9 0 18 -6 21 -15 7z"/>
<path d="M3138 1393 c7 -3 16 -2 19 1 4 3 -2 6 -13 5 -11 0 -14 -3 -6 -6z"/>
<path d="M2333 1204 c0 -15 34 -30 44 -20 4 3 -2 6 -13 6 -14 0 -16 2 -6 9 11
6 9 9 -5 13 -12 3 -20 0 -20 -8z"/>
<path d="M2395 1200 c-3 -6 1 -7 9 -4 18 7 21 14 7 14 -6 0 -13 -4 -16 -10z"/>
<path d="M2496 1179 c-11 -11 -15 -19 -9 -19 12 0 38 28 32 34 -2 2 -13 -5
-23 -15z"/>
<path d="M2293 1173 c9 -2 23 -2 30 0 6 3 -1 5 -18 5 -16 0 -22 -2 -12 -5z"/>
<path d="M2218 1163 c6 -2 18 -2 25 0 6 3 1 5 -13 5 -14 0 -19 -2 -12 -5z"/>
<path d="M2700 1160 c-8 -5 -12 -12 -9 -15 4 -3 12 1 19 10 14 17 11 19 -10 5z"/>
<path d="M2869 1140 c-13 -10 -19 -19 -12 -20 11 0 43 26 43 36 0 8 -8 4 -31
-16z"/>
<path d="M2775 1110 c-10 -11 -23 -17 -29 -13 -8 4 -8 2 0 -6 9 -10 17 -9 38
4 14 10 26 21 26 26 0 15 -16 10 -35 -11z"/>
<path d="M2520 1109 c0 -5 5 -7 10 -4 6 3 10 8 10 11 0 2 -4 4 -10 4 -5 0 -10
-5 -10 -11z"/>
<path d="M2690 1100 c0 -5 5 -10 11 -10 5 0 7 5 4 10 -3 6 -8 10 -11 10 -2 0
-4 -4 -4 -10z"/>
<path d="M2620 1038 c-12 -22 -12 -22 6 -6 10 10 15 20 12 24 -4 3 -12 -5 -18
-18z"/>
<path d="M2715 1050 c-3 -5 -2 -10 4 -10 5 0 13 5 16 10 3 6 2 10 -4 10 -5 0
-13 -4 -16 -10z"/>
<path d="M2726 995 c-9 -26 -7 -32 5 -12 6 10 9 21 6 23 -2 3 -7 -2 -11 -11z"/>
<path d="M2480 910 c-21 -7 -21 -8 -5 -9 11 0 27 4 35 9 18 11 5 11 -30 0z"/>
<path d="M2150 768 c0 -4 5 -8 11 -8 5 0 8 -4 5 -9 -3 -5 5 -11 19 -13 20 -4
23 -2 15 7 -8 9 -7 14 2 17 7 3 -2 7 -19 10 -18 2 -33 1 -33 -4z"/>
<path d="M2194 709 c-3 -6 -1 -16 4 -21 8 -8 11 -5 9 11 -1 24 -3 25 -13 10z"/>
<path d="M1787 679 c7 -7 15 -10 18 -7 3 3 -2 9 -12 12 -14 6 -15 5 -6 -5z"/>
<path d="M1411 2784 c0 -11 3 -14 6 -6 3 7 2 16 -1 19 -3 4 -6 -2 -5 -13z"/>
<path d="M1371 2764 c0 -11 3 -14 6 -6 3 7 2 16 -1 19 -3 4 -6 -2 -5 -13z"/>
<path d="M1382 2715 c-1 -11 3 -38 7 -60 7 -34 9 -35 9 -10 0 35 -15 101 -16
70z"/>
<path d="M3817 2665 c-15 -19 -41 -42 -57 -50 -16 -8 -36 -29 -45 -45 -19 -36
-19 -40 0 -40 8 0 17 11 21 24 3 14 23 36 45 50 34 23 77 81 67 91 -2 2 -16
-11 -31 -30z"/>
<path d="M3613 2655 c-21 -31 -29 -55 -20 -55 2 0 21 8 42 19 36 17 37 19 16
26 -16 5 -20 12 -16 26 9 28 3 23 -22 -16z"/>
<path d="M1431 2592 c6 -18 15 -32 20 -32 15 0 10 20 -11 43 l-20 21 11 -32z"/>
<path d="M1442 2494 c0 -27 3 -43 9 -37 13 13 16 76 3 80 -7 2 -11 -14 -12
-43z"/>
</g>
</svg>
